<svg height="512pt" viewBox="0 0 512 512" width="512pt" xmlns="http://www.w3.org/2000/svg" xmlns:xlink="http://www.w3.org/1999/xlink"><linearGradient id="a" gradientTransform="matrix(1 0 0 -1 0 -9462)" gradientUnits="userSpaceOnUse" x1="0" x2="512" y1="-9718" y2="-9718"><stop offset="0" stop-color="#00f1ff"/><stop offset=".231" stop-color="#00d8ff"/><stop offset=".5138" stop-color="#00c0ff"/><stop offset=".7773" stop-color="#00b2ff"/><stop offset="1" stop-color="#00adff"/></linearGradient><path d="m512 256c0 141.386719-114.613281 256-256 256s-256-114.613281-256-256 114.613281-256 256-256 256 114.613281 256 256zm0 0" fill="url(#a)"/><path d="m302.699219 74.5c-78.1875 0-141.800781 63.609375-141.800781 141.800781 0 33.855469 11.933593 64.976563 31.808593 89.386719l-88.777343 88.171875c-5.878907 5.835937-5.910157 15.332031-.070313 21.210937 2.929687 2.953126 6.785156 4.429688 10.640625 4.429688 3.820312 0 7.644531-1.449219 10.570312-4.355469l88.914063-88.308593c24.308594 19.546874 55.167969 31.265624 88.714844 31.265624 24.328125 0 48.332031-6.265624 69.417969-18.125 7.222656-4.0625 9.78125-13.207031 5.722656-20.429687-4.0625-7.21875-13.207032-9.78125-20.429688-5.722656-16.605468 9.339843-35.523437 14.277343-54.710937 14.277343-61.644531 0-111.800781-50.152343-111.800781-111.800781 0-61.648437 50.15625-111.800781 111.800781-111.800781 61.648437 0 111.800781 50.152344 111.800781 111.800781 0 19.421875-5.050781 38.542969-14.609375 55.300781-4.105469 7.195313-1.597656 16.355469 5.597656 20.460938 7.195313 4.105469 16.355469 1.597656 20.460938-5.597656 12.136719-21.277344 18.550781-45.539063 18.550781-70.164063 0-78.191406-63.609375-141.800781-141.800781-141.800781zm0 0" fill="#fff"/></svg>