<?xml version="1.0" standalone="no"?>
<!DOCTYPE svg PUBLIC "-//W3C//DTD SVG 20010904//EN"
 "http://www.w3.org/TR/2001/REC-SVG-20010904/DTD/svg10.dtd">
<svg version="1.0" xmlns="http://www.w3.org/2000/svg"
 width="700.000000pt" height="700.000000pt" viewBox="0 0 700.000000 700.000000"
 preserveAspectRatio="xMidYMid meet">
<metadata>
Created by potrace 1.11, written by Peter Selinger 2001-2013
</metadata>
<g transform="translate(0.000000,700.000000) scale(0.100000,-0.100000)"
fill="#000000" stroke="none">
<path d="M2325 6984 c-169 -30 -352 -103 -481 -193 -132 -92 -261 -249 -319
-391 -15 -36 -31 -74 -36 -85 -16 -37 -48 -189 -55 -265 -15 -164 -7 -315 28
-480 6 -30 12 -59 14 -65 32 -164 165 -482 280 -671 25 -42 44 -77 42 -79 -1
-1 -120 -53 -263 -115 -143 -62 -282 -123 -310 -135 -27 -13 -115 -51 -195
-85 -266 -114 -275 -119 -450 -265 -91 -75 -179 -149 -195 -164 -26 -22 -81
-68 -158 -131 -10 -8 -28 -23 -40 -33 -12 -11 -50 -42 -85 -70 -78 -63 -105
-105 -99 -150 7 -57 26 -78 95 -109 37 -16 85 -37 107 -47 22 -10 142 -62 267
-116 l228 -98 0 -991 c0 -953 1 -992 19 -1022 20 -33 33 -40 251 -134 80 -34
173 -75 208 -91 34 -16 64 -29 67 -29 4 0 199 -85 310 -134 17 -8 116 -51 220
-96 197 -86 256 -111 315 -137 19 -8 103 -44 185 -80 83 -36 272 -119 422
-184 149 -65 274 -119 277 -119 2 0 37 -15 78 -34 40 -18 123 -55 183 -81 61
-26 135 -58 165 -72 80 -36 112 -39 165 -14 24 11 47 21 50 21 3 0 36 14 73
31 37 16 76 34 87 39 11 5 178 77 370 161 193 83 368 159 390 169 22 10 90 39
150 65 61 26 133 57 160 70 28 12 79 35 115 50 36 15 85 37 110 48 25 11 65
28 90 39 25 11 58 26 75 33 16 8 100 44 185 80 85 37 173 75 195 85 22 10 90
39 150 65 61 26 138 61 173 76 34 16 65 29 68 29 3 0 26 10 52 21 26 12 81 36
121 54 129 55 116 -70 119 1089 l2 1003 321 139 c177 76 332 149 344 162 30
30 40 73 25 117 -8 25 -40 59 -123 127 -143 119 -157 131 -171 143 -6 6 -90
75 -186 155 -96 79 -177 147 -180 151 -17 20 -102 77 -125 83 -24 6 -228 91
-345 144 -25 11 -178 77 -340 147 -162 70 -296 129 -298 130 -2 2 15 36 39 77
83 145 101 179 150 290 94 210 160 443 177 623 8 86 8 261 0 335 -27 241 -124
454 -281 613 -140 143 -378 261 -605 300 -84 14 -335 16 -397 2 -182 -39 -296
-80 -420 -150 -128 -73 -268 -192 -347 -294 l-26 -34 -38 49 c-44 56 -163 165
-246 223 -92 66 -279 153 -380 177 -115 28 -173 35 -298 38 -95 2 -173 -1
-225 -10z"/>
</g>
</svg>
