<svg width="525" height="262" xmlns="http://www.w3.org/2000/svg" xmlns:xlink="http://www.w3.org/1999/xlink"><defs><path id="a" d="M.423.921h4.081V5H.423z"/></defs><g fill="none" fill-rule="evenodd"><path d="M244.908.7c.395.395.596.878.596 1.444 0 .567-.201 1.048-.596 1.445a1.97 1.97 0 0 1-1.444.596c-.565 0-1.046-.2-1.446-.596a1.974 1.974 0 0 1-.595-1.445c0-.566.2-1.05.595-1.444.4-.397.881-.596 1.446-.596.566 0 1.047.199 1.444.596M244.908 7.962c.395.395.596.878.596 1.444 0 .567-.201 1.048-.596 1.443a1.966 1.966 0 0 1-1.444.596 1.977 1.977 0 0 1-1.446-.596 1.966 1.966 0 0 1-.595-1.443c0-.566.2-1.049.595-1.444.4-.397.881-.596 1.446-.596.566 0 1.047.2 1.444.596M244.908 15.829c.395.397.596.88.596 1.446 0 .567-.201 1.046-.596 1.444a1.965 1.965 0 0 1-1.444.595 1.976 1.976 0 0 1-1.446-.595 1.973 1.973 0 0 1-.595-1.444c0-.566.2-1.05.595-1.446.4-.395.881-.594 1.446-.594.566 0 1.047.199 1.444.594M244.908 23.697c.395.397.596.878.596 1.444 0 .567-.201 1.049-.596 1.446a1.965 1.965 0 0 1-1.444.595 1.976 1.976 0 0 1-1.446-.595 1.976 1.976 0 0 1-.595-1.446c0-.566.2-1.047.595-1.444.4-.395.881-.595 1.446-.595.566 0 1.047.2 1.444.595M244.908 32.17c.395.396.596.879.596 1.444 0 .568-.201 1.047-.596 1.446a1.972 1.972 0 0 1-1.444.594 1.983 1.983 0 0 1-1.446-.594 1.978 1.978 0 0 1-.595-1.446c0-.565.2-1.048.595-1.443.4-.397.881-.596 1.446-.596.566 0 1.047.199 1.444.596M244.908 40.643c.395.397.596.878.596 1.444 0 .567-.201 1.049-.596 1.446a1.965 1.965 0 0 1-1.444.595 1.976 1.976 0 0 1-1.446-.595 1.976 1.976 0 0 1-.595-1.446c0-.566.2-1.047.595-1.444.4-.395.881-.593 1.446-.593.566 0 1.047.198 1.444.593M244.908 49.36c.395.394.596.875.596 1.44 0 .568-.201 1.05-.596 1.444a1.96 1.96 0 0 1-1.444.598 1.971 1.971 0 0 1-1.446-.598 1.967 1.967 0 0 1-.595-1.444c0-.565.2-1.046.595-1.44.4-.398.881-.597 1.446-.597.566 0 1.047.2 1.444.596M244.908 58.074c.395.395.596.878.596 1.443 0 .566-.201 1.047-.596 1.446a1.972 1.972 0 0 1-1.444.594 1.983 1.983 0 0 1-1.446-.594 1.98 1.98 0 0 1-.595-1.446c0-.565.2-1.048.595-1.443.4-.397.881-.596 1.446-.596.566 0 1.047.199 1.444.596M244.908 67.514c.395.395.596.878.596 1.443 0 .568-.201 1.05-.596 1.446a1.974 1.974 0 0 1-1.444.596 1.985 1.985 0 0 1-1.446-.596 1.974 1.974 0 0 1-.595-1.446c0-.565.2-1.048.595-1.443.4-.395.881-.596 1.446-.596.566 0 1.047.201 1.444.596M244.908 76.954c.395.397.596.878.596 1.444 0 .567-.201 1.05-.596 1.446a1.965 1.965 0 0 1-1.444.595 1.976 1.976 0 0 1-1.446-.595 1.976 1.976 0 0 1-.595-1.446c0-.566.2-1.047.595-1.444.4-.395.881-.593 1.446-.593.566 0 1.047.198 1.444.593M244.908 86.882c.395.397.596.878.596 1.444 0 .567-.201 1.049-.596 1.446a1.973 1.973 0 0 1-1.444.595c-.565 0-1.046-.2-1.446-.595a1.976 1.976 0 0 1-.595-1.446c0-.566.2-1.047.595-1.444.4-.395.881-.595 1.446-.595.566 0 1.047.2 1.444.595M244.908 97.048c.395.395.596.878.596 1.443 0 .568-.201 1.047-.596 1.446a1.974 1.974 0 0 1-1.444.596 1.985 1.985 0 0 1-1.446-.596 1.978 1.978 0 0 1-.595-1.446c0-.565.2-1.048.595-1.443.4-.397.881-.596 1.446-.596.566 0 1.047.2 1.444.596M244.908 107.7c.395.395.596.878.596 1.444 0 .567-.201 1.046-.596 1.445a1.962 1.962 0 0 1-1.444.596 1.973 1.973 0 0 1-1.446-.596 1.977 1.977 0 0 1-.595-1.445c0-.566.2-1.05.595-1.444.4-.395.881-.596 1.446-.596.566 0 1.047.2 1.444.596M244.908 119.805c.395.395.596.876.596 1.442 0 .567-.201 1.049-.596 1.448a1.971 1.971 0 0 1-1.444.593 1.982 1.982 0 0 1-1.446-.593 1.984 1.984 0 0 1-.595-1.448c0-.566.2-1.047.595-1.442.4-.397.881-.595 1.446-.595.566 0 1.047.198 1.444.595M244.908 133.117c.395.397.596.88.596 1.444 0 .57-.201 1.05-.596 1.446a1.965 1.965 0 0 1-1.444.595 1.976 1.976 0 0 1-1.446-.595 1.973 1.973 0 0 1-.595-1.446c0-.564.2-1.047.595-1.444.4-.395.881-.593 1.446-.593.566 0 1.047.198 1.444.593M244.908 148.854c.395.395.596.878.596 1.443 0 .568-.201 1.047-.596 1.446a1.972 1.972 0 0 1-1.444.594 1.983 1.983 0 0 1-1.446-.594 1.978 1.978 0 0 1-.595-1.446c0-.565.2-1.048.595-1.443.4-.397.881-.596 1.446-.596.566 0 1.047.199 1.444.596M244.908 165.8c.395.395.596.878.596 1.443 0 .566-.201 1.047-.596 1.446a1.972 1.972 0 0 1-1.444.594 1.983 1.983 0 0 1-1.446-.594 1.98 1.98 0 0 1-.595-1.446c0-.565.2-1.048.595-1.443.4-.397.881-.596 1.446-.596.566 0 1.047.199 1.444.596M244.908 185.166c.395.395.596.878.596 1.444 0 .567-.201 1.048-.596 1.446a1.971 1.971 0 0 1-1.444.593 1.982 1.982 0 0 1-1.446-.593 1.978 1.978 0 0 1-.595-1.446c0-.566.2-1.05.595-1.444.4-.397.881-.596 1.446-.596.566 0 1.047.199 1.444.596M244.908 206.954c.395.397.596.878.596 1.444a1.97 1.97 0 0 1-.596 1.444 1.96 1.96 0 0 1-1.444.597 1.97 1.97 0 0 1-1.446-.597 1.968 1.968 0 0 1-.595-1.444c0-.566.2-1.047.595-1.444.4-.395.881-.593 1.446-.593.566 0 1.047.198 1.444.593M244.908 231.162c.395.397.596.878.596 1.444a1.97 1.97 0 0 1-.596 1.444 1.96 1.96 0 0 1-1.444.597 1.97 1.97 0 0 1-1.446-.597 1.968 1.968 0 0 1-.595-1.444c0-.566.2-1.047.595-1.444.4-.395.881-.593 1.446-.593.566 0 1.047.198 1.444.593" fill="#221F1F"/><g transform="translate(241 256.274)"><mask id="b" fill="#fff"><use xlink:href="#a"/></mask><path d="M3.908 1.515c.395.397.596.878.596 1.444 0 .567-.201 1.048-.596 1.445A1.966 1.966 0 0 1 2.464 5a1.977 1.977 0 0 1-1.446-.596A1.974 1.974 0 0 1 .423 2.96c0-.566.2-1.047.595-1.444.4-.395.881-.594 1.446-.594.566 0 1.047.2 1.444.594" fill="#221F1F" mask="url(#b)"/></g><path fill="#221F1F" d="M87.155 117.748H206.9v-5.02H87.155zM80.378 126.282h133.046v-5.021H80.378zM74.105 134.816h145.849V129.8H74.105zM87.155 54.453H206.9v-5.02H87.155zM111.383 46.204l35.643-10.67 34.897 10.67h14.556l-49.453-15.312L96.82 46.204z"/><path fill="#221F1F" d="M87.156 46.204l59.495-18.206 60.25 18.206v-5.402l-59.876-18.449-59.87 18.45zM94.183 106.218s0 3.771 4.271 3.771c4.266 0 4.013-3.77 4.013-3.77V57.52H99.33v48.823s0 .883-1.13.883-.874-1.136-.874-1.136v-48.57h-3.143v48.697zM113.893 109.989h2.507v-31.55l3.142 31.55h2.635V57.522h-2.635v28.04l-3.142-28.04h-2.507zM133.854 109.989h8.024v-2.768h-4.519V83.5h3.396v-2.884h-3.396V60.154h3.396v-2.632h-6.9zM180.039 73.086V61.281s-.127-3.759-4.141-3.759c-4.015 0-4.015 3.759-4.015 3.759v44.937s-.132 3.771 4.015 3.771c4.14 0 4.14-3.771 4.14-3.771V93.041h-3.136v13.177s0 1.003-1.004 1.003c-.944 0-1.13-1.003-1.13-1.003V61.281s0-1.128 1.13-1.128c1.004 0 1.004 1.128 1.004 1.128v11.805h3.137zM196.985 106.218s.125 1.01-1.134 1.01c-1.25 0-1.25-1.01-1.25-1.01V61.285s0-1.132 1.129-1.132c1.255 0 1.255 1.132 1.255 1.132v44.933zm3.01-44.933s.254-3.764-4.144-3.764c-4.39 0-4.39 3.764-4.39 3.764v44.933s0 3.771 4.143 3.771c4.392 0 4.392-3.77 4.392-3.77V61.284zM157.07 106.218s0 1.01-.818.935c-.813-.058-.813-.935-.813-.935V93.041h-3.266v13.177s-.124 3.771 4.015 3.771c4.145 0 4.145-3.77 4.145-3.77V94.87c-.014-6.162-4.894-17.896-4.894-21.784v-11.8s-.128-1.133.75-1.133c.88 0 .88 1.132.88 1.132v11.801h3.264v-11.8s.126-3.893-4.017-3.765c-4.143.12-4.143 3.764-4.143 3.764v10.041c0 6.59 4.896 17.7 4.896 22.78v12.112zM107.125 156.941h1.8v7.858c0 1.367-.154 2.453-.464 3.256-.31.804-.867 1.458-1.675 1.962-.807.505-1.866.757-3.177.757-1.274 0-2.316-.22-3.127-.659a3.76 3.76 0 0 1-1.734-1.906c-.347-.832-.519-1.969-.519-3.41v-7.858h1.798v7.85c0 1.18.111 2.05.33 2.61.22.56.597.992 1.132 1.294.534.304 1.19.455 1.962.455 1.323 0 2.267-.3 2.83-.9.563-.6.844-1.753.844-3.46v-7.849zM111.707 170.542v-9.853h1.504v1.401c.723-1.082 1.768-1.623 3.135-1.623.593 0 1.14.106 1.637.32.498.213.871.493 1.12.839.246.347.42.758.518 1.234.062.31.093.851.093 1.624v6.058h-1.67v-5.993c0-.68-.066-1.189-.194-1.527a1.619 1.619 0 0 0-.692-.806c-.33-.201-.719-.302-1.164-.302-.712 0-1.326.226-1.842.677-.516.452-.775 1.308-.775 2.57v5.381h-1.67zM122.283 170.542h1.67v-9.853h-1.67v9.853zm0-11.681h1.67v-1.92h-1.67v1.92zM130.14 169.048l.242 1.475a6.19 6.19 0 0 1-1.262.15c-.606 0-1.076-.098-1.41-.289a1.608 1.608 0 0 1-.705-.756c-.135-.312-.204-.97-.204-1.972v-5.668h-1.224v-1.299h1.224v-2.44l1.66-1.002v3.442h1.68v1.3h-1.68v5.76c0 .477.03.783.089.92a.692.692 0 0 0 .287.323c.133.081.324.121.572.121.185 0 .429-.022.732-.065M133.035 164.67h5.502c-.074-.83-.284-1.45-.63-1.865-.533-.644-1.223-.966-2.069-.966-.768 0-1.412.257-1.935.77-.523.514-.81 1.201-.868 2.06m5.483 2.7l1.726.214c-.272 1.007-.776 1.79-1.512 2.346-.736.558-1.676.835-2.82.835-1.44 0-2.584-.444-3.429-1.33-.844-.888-1.266-2.132-1.266-3.734 0-1.657.427-2.944 1.281-3.86.853-.916 1.96-1.374 3.32-1.374 1.32 0 2.395.45 3.23 1.346.835.897 1.252 2.158 1.252 3.785 0 .1-.003.248-.009.445h-7.348c.062 1.083.367 1.911.918 2.487.551.576 1.237.863 2.06.863.612 0 1.135-.16 1.567-.482.434-.322.776-.835 1.03-1.54M143.453 165.625c0 1.262.267 2.205.8 2.83.53.625 1.158.937 1.882.937.73 0 1.35-.299 1.86-.896s.765-1.507.765-2.732c0-1.348-.26-2.338-.78-2.969-.519-.63-1.159-.946-1.92-.946-.742 0-1.362.303-1.86.909-.498.607-.747 1.562-.747 2.867zm5.28 4.917v-1.243c-.626.977-1.544 1.466-2.757 1.466a3.867 3.867 0 0 1-2.166-.65c-.658-.432-1.169-1.037-1.53-1.813-.362-.777-.543-1.669-.543-2.677 0-.983.164-1.875.491-2.677.33-.801.821-1.414 1.476-1.841a3.94 3.94 0 0 1 2.198-.64c.594 0 1.123.125 1.587.376.464.25.841.576 1.132.978v-4.88h1.66v13.601h-1.549zM158.381 170.542v-13.601h1.846l7.144 10.679v-10.679h1.725v13.601h-1.846l-7.143-10.688v10.688zM178.197 165.597c-.606.248-1.516.458-2.728.631-.685.1-1.171.21-1.457.334a1.47 1.47 0 0 0-.659.542 1.434 1.434 0 0 0-.23.794c0 .445.168.816.506 1.113.337.297.83.445 1.478.445.644 0 1.215-.14 1.718-.422.5-.28.868-.666 1.103-1.155.18-.377.27-.933.27-1.67v-.612zm.14 3.73c-.618.525-1.214.896-1.786 1.113a5.173 5.173 0 0 1-1.841.324c-1.084 0-1.916-.264-2.496-.792-.582-.53-.873-1.205-.873-2.028 0-.482.11-.923.33-1.322.219-.399.506-.719.863-.96a4.063 4.063 0 0 1 1.2-.547c.328-.087.822-.17 1.484-.25 1.35-.162 2.342-.353 2.98-.576.005-.229.008-.374.008-.436 0-.68-.156-1.16-.474-1.438-.425-.377-1.06-.566-1.9-.566-.785 0-1.365.138-1.74.413-.375.275-.652.762-.83 1.461l-1.632-.223c.148-.698.392-1.263.732-1.693.34-.43.832-.76 1.475-.993.643-.23 1.388-.347 2.236-.347.84 0 1.523.1 2.05.297.526.198.913.446 1.16.747.247.3.42.678.519 1.136.055.284.083.798.083 1.54v2.226c0 1.553.037 2.535.108 2.946.07.411.212.806.422 1.183h-1.744a3.535 3.535 0 0 1-.334-1.216zM186.12 169.048l.24 1.475a6.19 6.19 0 0 1-1.262.15c-.606 0-1.076-.098-1.41-.289a1.608 1.608 0 0 1-.705-.756c-.135-.312-.204-.97-.204-1.972v-5.668h-1.224v-1.299h1.224v-2.44l1.66-1.002v3.442h1.68v1.3h-1.68v5.76c0 .477.03.783.09.92a.692.692 0 0 0 .286.323c.133.081.324.121.572.121.185 0 .43-.022.732-.065M187.762 170.542h1.67v-9.853h-1.67v9.853zm0-11.681h1.67v-1.92h-1.67v1.92zM193.069 165.616c0 1.262.274 2.207.825 2.834a2.647 2.647 0 0 0 2.078.942c.829 0 1.519-.316 2.07-.946.549-.631.825-1.593.825-2.886 0-1.218-.277-2.141-.83-2.77-.554-.627-1.242-.941-2.065-.941-.835 0-1.527.313-2.078.937-.551.625-.825 1.568-.825 2.83m-1.717 0c0-1.824.507-3.176 1.522-4.054.847-.73 1.88-1.095 3.098-1.095 1.355 0 2.462.444 3.322 1.33.859.889 1.289 2.115 1.289 3.68 0 1.268-.19 2.265-.571 2.992a4.032 4.032 0 0 1-1.66 1.693 4.836 4.836 0 0 1-2.38.603c-1.38 0-2.494-.442-3.344-1.327-.851-.884-1.276-2.158-1.276-3.822M202.54 170.542v-9.853h1.503v1.401c.723-1.082 1.768-1.623 3.135-1.623.593 0 1.14.106 1.637.32.498.213.871.493 1.12.839.246.347.42.758.518 1.234.062.31.093.851.093 1.624v6.058h-1.67v-5.993c0-.68-.066-1.189-.194-1.527a1.619 1.619 0 0 0-.692-.806c-.33-.201-.719-.302-1.164-.302-.712 0-1.326.226-1.842.677-.516.452-.775 1.308-.775 2.57v5.381h-1.67zM212.438 167.601l1.652-.26c.092.662.35 1.17.775 1.522.423.352 1.015.53 1.776.53.767 0 1.336-.158 1.707-.47.37-.312.557-.678.557-1.099 0-.377-.164-.674-.492-.89-.23-.149-.797-.338-1.707-.567-1.225-.309-2.074-.577-2.546-.803-.474-.225-.832-.538-1.076-.936-.246-.4-.367-.84-.367-1.322 0-.439.1-.846.3-1.22.202-.375.476-.685.822-.933.26-.19.614-.354 1.063-.487a5.046 5.046 0 0 1 1.442-.199c.774 0 1.452.111 2.036.334.585.222 1.017.524 1.294.904.28.381.47.89.576 1.526l-1.632.223c-.075-.507-.29-.903-.646-1.187-.355-.285-.858-.427-1.507-.427-.767 0-1.314.127-1.642.38-.328.254-.492.551-.492.891 0 .217.068.411.205.584.135.18.348.328.639.446.167.062.659.204 1.476.426 1.18.316 2.005.574 2.472.775.466.201.834.493 1.099.877.266.383.4.86.4 1.428 0 .557-.163 1.081-.488 1.573-.325.492-.794.872-1.405 1.141-.613.27-1.306.404-2.078.404-1.281 0-2.257-.266-2.928-.798-.671-.532-1.1-1.32-1.285-2.366M0 191.342V177.74h9.834v1.605H1.8v4.166h7.523v1.596H1.8v4.629h8.35v1.605zM13.535 186.425c0 1.262.267 2.205.8 2.83.53.625 1.158.937 1.882.937.73 0 1.35-.3 1.86-.896.51-.597.765-1.507.765-2.732 0-1.348-.26-2.338-.78-2.97-.519-.63-1.159-.945-1.92-.945-.742 0-1.362.303-1.86.909-.498.607-.747 1.562-.747 2.867zm5.28 4.917v-1.243c-.626.977-1.544 1.466-2.757 1.466a3.867 3.867 0 0 1-2.166-.65c-.658-.432-1.169-1.037-1.53-1.813-.362-.777-.543-1.67-.543-2.677 0-.983.164-1.875.491-2.677.33-.801.821-1.414 1.476-1.841a3.94 3.94 0 0 1 2.198-.64c.594 0 1.123.125 1.587.376.464.25.841.576 1.132.978v-4.88h1.66v13.6h-1.549zM29.446 191.342v-1.447c-.767 1.113-1.81 1.67-3.126 1.67a3.995 3.995 0 0 1-1.628-.334c-.505-.223-.88-.503-1.123-.84-.244-.337-.416-.75-.515-1.238-.068-.328-.102-.848-.102-1.56v-6.104h1.67v5.465c0 .872.034 1.46.102 1.763.106.439.328.783.668 1.034.34.25.76.376 1.262.376.5 0 .97-.13 1.41-.386.44-.256.75-.606.933-1.047.18-.443.273-1.084.273-1.926v-5.28h1.67v9.854h-1.494zM39.985 187.733l1.643.213c-.18 1.132-.64 2.018-1.378 2.659-.74.639-1.648.96-2.724.96-1.348 0-2.432-.441-3.251-1.323-.82-.881-1.23-2.144-1.23-3.789 0-1.064.176-1.995.53-2.793.35-.798.889-1.396 1.609-1.795a4.772 4.772 0 0 1 2.352-.598c1.07 0 1.945.27 2.625.811.68.542 1.117 1.31 1.308 2.306l-1.623.25c-.155-.661-.428-1.159-.821-1.493-.394-.334-.868-.501-1.425-.501-.841 0-1.524.301-2.05.904-.525.604-.788 1.558-.788 2.862 0 1.324.253 2.286.76 2.886.508.6 1.17.899 1.986.899.656 0 1.203-.2 1.642-.603.439-.401.718-1.02.835-1.855M49.346 186.397c-.606.248-1.516.458-2.73.631-.684.099-1.17.21-1.455.334a1.47 1.47 0 0 0-.66.542 1.434 1.434 0 0 0-.23.794c0 .445.168.816.506 1.113.337.297.83.445 1.479.445.644 0 1.215-.14 1.717-.422.5-.281.868-.666 1.103-1.155.18-.377.27-.933.27-1.67v-.612zm.139 3.729c-.618.526-1.214.897-1.786 1.114a5.173 5.173 0 0 1-1.841.324c-1.083 0-1.915-.264-2.496-.792-.581-.53-.872-1.205-.872-2.028 0-.482.109-.923.329-1.322.219-.399.506-.719.863-.96a4.063 4.063 0 0 1 1.2-.547c.329-.087.823-.17 1.485-.251 1.349-.161 2.34-.352 2.979-.575.006-.229.009-.374.009-.436 0-.68-.157-1.16-.474-1.438-.426-.377-1.06-.566-1.901-.566-.785 0-1.365.138-1.74.413-.374.275-.651.762-.83 1.461l-1.632-.223c.148-.698.392-1.263.732-1.693.34-.43.832-.76 1.475-.993.643-.231 1.388-.347 2.236-.347.84 0 1.524.099 2.05.297.526.198.913.446 1.16.747.247.299.42.678.519 1.136.056.284.083.798.083 1.54v2.226c0 1.553.037 2.535.108 2.946.07.411.212.806.422 1.183h-1.744a3.535 3.535 0 0 1-.334-1.216zM57.268 189.848l.24 1.475a6.19 6.19 0 0 1-1.261.15c-.606 0-1.076-.098-1.41-.289a1.608 1.608 0 0 1-.705-.756c-.135-.312-.204-.97-.204-1.972v-5.668h-1.224v-1.299h1.224v-2.44l1.66-1.002v3.442h1.68v1.3h-1.68v5.76c0 .477.03.783.089.92a.692.692 0 0 0 .287.323c.133.081.324.121.572.121.185 0 .429-.022.732-.065M58.91 191.342h1.67v-9.853h-1.67v9.853zm0-11.681h1.67v-1.92h-1.67v1.92zM64.217 186.416c0 1.262.274 2.207.825 2.834a2.647 2.647 0 0 0 2.078.942c.829 0 1.519-.316 2.07-.946.549-.631.825-1.593.825-2.886 0-1.218-.277-2.141-.83-2.77-.554-.627-1.242-.941-2.065-.941-.835 0-1.527.313-2.078.937-.551.625-.825 1.568-.825 2.83m-1.717 0c0-1.824.507-3.176 1.522-4.054.847-.73 1.88-1.095 3.098-1.095 1.355 0 2.462.444 3.322 1.33.859.889 1.289 2.115 1.289 3.68 0 1.268-.19 2.265-.571 2.992a4.032 4.032 0 0 1-1.66 1.693 4.836 4.836 0 0 1-2.38.603c-1.379 0-2.494-.442-3.344-1.327-.851-.884-1.276-2.158-1.276-3.822M73.688 191.342v-9.853h1.504v1.4c.723-1.081 1.768-1.622 3.135-1.622.593 0 1.139.106 1.637.32.498.213.87.493 1.119.839.247.347.42.758.519 1.234.062.31.093.85.093 1.624v6.058h-1.67v-5.993c0-.68-.066-1.19-.194-1.527a1.619 1.619 0 0 0-.692-.806c-.331-.201-.72-.302-1.164-.302-.712 0-1.326.226-1.842.677-.516.452-.775 1.308-.775 2.57v5.38h-1.67zM90.545 186.397c-.606.248-1.516.458-2.729.631-.685.099-1.17.21-1.456.334a1.47 1.47 0 0 0-.659.542 1.434 1.434 0 0 0-.23.794c0 .445.167.816.505 1.113.337.297.83.445 1.48.445.643 0 1.214-.14 1.716-.422.5-.281.868-.666 1.103-1.155.18-.377.27-.933.27-1.67v-.612zm.14 3.729c-.619.526-1.215.897-1.787 1.114a5.173 5.173 0 0 1-1.84.324c-1.084 0-1.916-.264-2.497-.792-.58-.53-.872-1.205-.872-2.028 0-.482.11-.923.33-1.322.218-.399.505-.719.862-.96a4.063 4.063 0 0 1 1.201-.547c.328-.087.822-.17 1.484-.251 1.35-.161 2.341-.352 2.98-.575.005-.229.008-.374.008-.436 0-.68-.157-1.16-.474-1.438-.426-.377-1.06-.566-1.9-.566-.786 0-1.366.138-1.74.413-.375.275-.652.762-.83 1.461l-1.633-.223c.148-.698.392-1.263.732-1.693.34-.43.832-.76 1.475-.993.643-.231 1.388-.347 2.236-.347.841 0 1.524.099 2.051.297.525.198.912.446 1.16.747.246.299.42.678.518 1.136.056.284.083.798.083 1.54v2.226c0 1.553.037 2.535.108 2.946.07.411.212.806.422 1.183h-1.744a3.535 3.535 0 0 1-.334-1.216zM94.783 191.342h1.67v-13.601h-1.67zM99.478 191.342v-1.902h1.9v1.902c0 .699-.122 1.263-.37 1.693-.247.43-.64.762-1.177.997l-.464-.714c.352-.155.612-.382.779-.682.167-.3.26-.732.278-1.294h-.946zM109.201 186.972l1.697-.148c.081.68.268 1.238.562 1.674.294.436.75.79 1.368 1.057.62.27 1.314.404 2.088.404.686 0 1.293-.102 1.818-.306.526-.204.917-.484 1.174-.84.256-.355.385-.743.385-1.164 0-.427-.124-.799-.37-1.118-.248-.318-.657-.585-1.226-.802-.365-.142-1.172-.363-2.422-.664-1.249-.3-2.124-.582-2.625-.848-.649-.34-1.134-.763-1.452-1.267a3.106 3.106 0 0 1-.477-1.693c0-.686.195-1.328.584-1.925.39-.597.96-1.049 1.707-1.359.75-.309 1.581-.464 2.496-.464 1.007 0 1.897.163 2.667.487.77.325 1.362.803 1.776 1.434a4.1 4.1 0 0 1 .668 2.143l-1.725.13c-.093-.86-.407-1.509-.942-1.949-.535-.439-1.325-.658-2.37-.658-1.089 0-1.882.2-2.38.598-.498.4-.747.88-.747 1.443 0 .488.177.89.53 1.206.346.315 1.25.638 2.713.97 1.462.33 2.466.62 3.011.867.791.365 1.376.827 1.753 1.386.377.56.565 1.205.565 1.935 0 .723-.207 1.405-.62 2.046-.415.64-1.01 1.137-1.787 1.493-.776.356-1.649.534-2.62.534-1.232 0-2.263-.18-3.095-.539-.832-.358-1.484-.898-1.957-1.618-.474-.72-.723-1.536-.747-2.445M128.702 187.733l1.643.213c-.18 1.132-.64 2.018-1.378 2.659-.74.639-1.648.96-2.724.96-1.348 0-2.432-.441-3.25-1.323-.82-.881-1.23-2.144-1.23-3.789 0-1.064.175-1.995.53-2.793.35-.798.888-1.396 1.608-1.795a4.772 4.772 0 0 1 2.352-.598c1.07 0 1.945.27 2.625.811.68.542 1.117 1.31 1.308 2.306l-1.623.25c-.155-.661-.428-1.159-.82-1.493-.395-.334-.869-.501-1.426-.501-.84 0-1.524.301-2.05.904-.525.604-.788 1.558-.788 2.862 0 1.324.253 2.286.76 2.886.508.6 1.17.899 1.986.899.656 0 1.203-.2 1.642-.603.44-.401.718-1.02.835-1.855M131.782 191.342h1.67v-9.853h-1.67v9.853zm0-11.681h1.67v-1.92h-1.67v1.92zM137.256 185.47h5.502c-.074-.83-.284-1.45-.63-1.866-.533-.643-1.223-.965-2.069-.965-.768 0-1.412.257-1.935.77-.523.514-.81 1.201-.868 2.06m5.483 2.7l1.726.213c-.272 1.008-.776 1.791-1.512 2.347-.736.557-1.676.835-2.82.835-1.44 0-2.584-.444-3.429-1.33-.844-.889-1.266-2.133-1.266-3.735 0-1.657.427-2.944 1.281-3.86.853-.915 1.96-1.373 3.32-1.373 1.32 0 2.395.45 3.23 1.346.835.897 1.252 2.158 1.252 3.785 0 .1-.003.247-.009.445h-7.348c.062 1.083.367 1.911.918 2.486.551.576 1.237.863 2.06.863.612 0 1.135-.16 1.567-.482.434-.322.776-.835 1.03-1.54M146.56 191.342v-9.853h1.505v1.4c.723-1.081 1.768-1.622 3.135-1.622.593 0 1.139.106 1.637.32.498.213.87.493 1.119.839.247.347.42.758.519 1.234.062.31.093.85.093 1.624v6.058h-1.67v-5.993c0-.68-.066-1.19-.194-1.527a1.619 1.619 0 0 0-.692-.806c-.331-.201-.72-.302-1.164-.302-.712 0-1.326.226-1.842.677-.516.452-.775 1.308-.775 2.57v5.38h-1.67zM160.774 189.848l.24 1.475a6.19 6.19 0 0 1-1.261.15c-.606 0-1.076-.098-1.41-.289a1.608 1.608 0 0 1-.705-.756c-.135-.312-.204-.97-.204-1.972v-5.668h-1.224v-1.299h1.224v-2.44l1.66-1.002v3.442h1.68v1.3h-1.68v5.76c0 .477.03.783.089.92a.692.692 0 0 0 .287.323c.133.081.324.121.572.121.185 0 .429-.022.732-.065M162.416 191.342h1.67v-9.853h-1.67v9.853zm0-11.681h1.67v-1.92h-1.67v1.92zM167.027 191.342v-8.554h-1.476v-1.3h1.476v-1.047c0-.662.059-1.153.177-1.475a2.13 2.13 0 0 1 .848-1.053c.405-.27.973-.404 1.703-.404.469 0 .989.056 1.558.167l-.25 1.457a5.605 5.605 0 0 0-.984-.093c-.507 0-.865.109-1.076.325-.21.217-.315.622-.315 1.215v.909h1.92v1.299h-1.92v8.554h-1.661zM171.916 191.342h1.67v-9.853h-1.67v9.853zm0-11.681h1.67v-1.92h-1.67v1.92zM182.557 187.733l1.643.213c-.18 1.132-.64 2.018-1.378 2.659-.74.639-1.648.96-2.724.96-1.348 0-2.432-.441-3.251-1.323-.82-.881-1.23-2.144-1.23-3.789 0-1.064.176-1.995.53-2.793.35-.798.889-1.396 1.609-1.795a4.772 4.772 0 0 1 2.352-.598c1.07 0 1.945.27 2.625.811.68.542 1.117 1.31 1.308 2.306l-1.623.25c-.155-.661-.428-1.159-.821-1.493-.394-.334-.868-.501-1.425-.501-.841 0-1.524.301-2.05.904-.525.604-.788 1.558-.788 2.862 0 1.324.253 2.286.76 2.886.508.6 1.17.899 1.986.899.656 0 1.203-.2 1.642-.603.439-.401.718-1.02.835-1.855M197.197 186.397c-.606.248-1.516.458-2.728.631-.685.099-1.171.21-1.457.334a1.47 1.47 0 0 0-.659.542 1.434 1.434 0 0 0-.23.794c0 .445.168.816.506 1.113.337.297.83.445 1.478.445.644 0 1.215-.14 1.718-.422.5-.281.868-.666 1.103-1.155.18-.377.27-.933.27-1.67v-.612zm.14 3.729c-.618.526-1.214.897-1.786 1.114a5.173 5.173 0 0 1-1.841.324c-1.084 0-1.916-.264-2.496-.792-.582-.53-.873-1.205-.873-2.028 0-.482.11-.923.33-1.322.219-.399.506-.719.863-.96a4.063 4.063 0 0 1 1.2-.547c.328-.087.822-.17 1.484-.251 1.35-.161 2.342-.352 2.98-.575.005-.229.008-.374.008-.436 0-.68-.156-1.16-.474-1.438-.425-.377-1.06-.566-1.9-.566-.785 0-1.365.138-1.74.413-.375.275-.652.762-.83 1.461l-1.632-.223c.148-.698.392-1.263.732-1.693.34-.43.832-.76 1.475-.993.643-.231 1.388-.347 2.236-.347.84 0 1.523.099 2.05.297.526.198.913.446 1.16.747.247.299.42.678.519 1.136.055.284.083.798.083 1.54v2.226c0 1.553.037 2.535.108 2.946.07.411.212.806.422 1.183h-1.744a3.535 3.535 0 0 1-.334-1.216zM201.473 191.342v-9.853h1.504v1.4c.723-1.081 1.768-1.622 3.135-1.622.593 0 1.139.106 1.637.32.498.213.87.493 1.119.839.247.347.42.758.519 1.234.062.31.093.85.093 1.624v6.058h-1.67v-5.993c0-.68-.066-1.19-.194-1.527a1.619 1.619 0 0 0-.692-.806c-.331-.201-.72-.302-1.164-.302-.712 0-1.326.226-1.842.677-.516.452-.775 1.308-.775 2.57v5.38h-1.67zM213.153 186.425c0 1.262.267 2.205.799 2.83.53.625 1.159.937 1.883.937.729 0 1.349-.3 1.86-.896.51-.597.765-1.507.765-2.732 0-1.348-.26-2.338-.78-2.97-.52-.63-1.16-.945-1.92-.945-.742 0-1.362.303-1.86.909-.498.607-.747 1.562-.747 2.867zm5.279 4.917v-1.243c-.625.977-1.543 1.466-2.756 1.466a3.867 3.867 0 0 1-2.166-.65c-.658-.432-1.17-1.037-1.53-1.813-.362-.777-.543-1.67-.543-2.677 0-.983.164-1.875.49-2.677.33-.801.822-1.414 1.477-1.841a3.94 3.94 0 0 1 2.198-.64c.594 0 1.123.125 1.587.376.464.25.84.576 1.132.978v-4.88h1.66v13.6h-1.55zM54.05 207.374l1.8.455c-.377 1.478-1.057 2.605-2.036 3.38-.981.777-2.179 1.165-3.596 1.165-1.465 0-2.657-.298-3.576-.895-.918-.597-1.617-1.461-2.097-2.593a9.258 9.258 0 0 1-.719-3.646c0-1.416.271-2.652.812-3.706.541-1.055 1.311-1.855 2.31-2.403.998-.547 2.098-.821 3.298-.821 1.361 0 2.505.347 3.433 1.039.928.693 1.574 1.667 1.939 2.922l-1.772.418c-.316-.99-.774-1.71-1.373-2.162-.6-.451-1.355-.677-2.264-.677-1.045 0-1.919.25-2.621.752a3.963 3.963 0 0 0-1.479 2.017 8.115 8.115 0 0 0-.427 2.612c0 1.157.168 2.166.506 3.029.337.863.861 1.508 1.572 1.934.711.427 1.481.64 2.31.64 1.008 0 1.862-.29 2.56-.872.699-.581 1.173-1.443 1.42-2.588M64.31 212.142v-1.447c-.766 1.113-1.808 1.67-3.125 1.67a3.995 3.995 0 0 1-1.628-.334c-.505-.223-.88-.503-1.123-.84-.244-.337-.416-.75-.515-1.238-.068-.328-.102-.848-.102-1.559v-6.105h1.67v5.465c0 .872.034 1.46.102 1.763.106.44.328.783.668 1.034.34.25.76.376 1.262.376.5 0 .97-.129 1.41-.386.44-.256.75-.606.933-1.047.18-.443.273-1.084.273-1.926v-5.279h1.67v9.853H64.31zM68.383 212.143h1.67v-13.601h-1.67zM76.287 210.649l.241 1.475a6.19 6.19 0 0 1-1.262.149c-.606 0-1.076-.097-1.41-.288a1.608 1.608 0 0 1-.705-.757c-.135-.311-.204-.97-.204-1.972v-5.667h-1.224v-1.3h1.224v-2.44l1.66-1.001v3.441h1.68v1.3h-1.68v5.76c0 .478.03.784.09.92a.692.692 0 0 0 .286.323c.133.081.324.121.572.121.185 0 .43-.022.732-.064M84.377 212.142v-1.447c-.767 1.113-1.809 1.67-3.126 1.67a3.995 3.995 0 0 1-1.628-.334c-.505-.223-.879-.503-1.123-.84-.244-.337-.416-.75-.515-1.238-.068-.328-.102-.848-.102-1.559v-6.105h1.67v5.465c0 .872.034 1.46.102 1.763.106.44.328.783.668 1.034.34.25.761.376 1.262.376s.971-.129 1.41-.386c.44-.256.75-.606.933-1.047.181-.443.273-1.084.273-1.926v-5.279h1.67v9.853h-1.494zM88.469 212.142v-9.853h1.502v1.494c.384-.699.738-1.16 1.062-1.382a1.856 1.856 0 0 1 1.073-.334c.562 0 1.134.18 1.716.538l-.576 1.55c-.408-.242-.816-.363-1.224-.363-.365 0-.693.11-.984.33-.291.22-.498.524-.622.914a6.518 6.518 0 0 0-.277 1.948v5.158h-1.67zM101.105 207.197c-.606.248-1.516.458-2.73.631-.684.1-1.17.21-1.455.334a1.47 1.47 0 0 0-.66.542 1.434 1.434 0 0 0-.23.794c0 .445.168.816.506 1.113.337.297.83.445 1.479.445.644 0 1.215-.14 1.717-.422.5-.28.868-.666 1.103-1.155.18-.377.27-.933.27-1.67v-.612zm.139 3.73c-.618.525-1.214.896-1.786 1.113a5.173 5.173 0 0 1-1.841.324c-1.083 0-1.915-.264-2.496-.792-.581-.53-.872-1.205-.872-2.028 0-.482.109-.923.329-1.322.219-.399.506-.719.863-.96a4.063 4.063 0 0 1 1.2-.547c.329-.087.823-.17 1.485-.25 1.349-.162 2.34-.353 2.979-.576.006-.229.009-.374.009-.436 0-.68-.157-1.16-.474-1.438-.426-.377-1.06-.566-1.901-.566-.785 0-1.365.138-1.74.413-.374.275-.651.762-.83 1.461l-1.632-.223c.148-.698.392-1.263.732-1.693.34-.43.832-.76 1.475-.993.643-.23 1.388-.347 2.236-.347.84 0 1.524.1 2.05.297.526.198.913.446 1.16.747.247.3.42.678.519 1.136.056.284.083.798.083 1.54v2.226c0 1.553.037 2.535.108 2.946.07.411.212.806.422 1.183h-1.744a3.535 3.535 0 0 1-.334-1.216zM105.344 212.143h1.67v-13.601h-1.67zM116.403 205.546c0 1.639.44 2.93 1.322 3.874.882.942 1.988 1.414 3.317 1.414 1.355 0 2.469-.476 3.344-1.43.875-.951 1.314-2.302 1.314-4.053 0-1.107-.188-2.073-.562-2.9-.375-.824-.922-1.465-1.642-1.92-.721-.454-1.53-.681-2.426-.681-1.274 0-2.37.437-3.29 1.313-.917.875-1.377 2.336-1.377 4.383m-1.855-.028c0-2.257.606-4.025 1.818-5.302 1.213-1.277 2.777-1.916 4.695-1.916 1.255 0 2.387.3 3.395.9a5.868 5.868 0 0 1 2.305 2.51c.53 1.073.794 2.29.794 3.65 0 1.38-.28 2.614-.836 3.702-.556 1.089-1.344 1.913-2.365 2.473a6.764 6.764 0 0 1-3.303.839c-1.28 0-2.424-.31-3.432-.928a5.964 5.964 0 0 1-2.292-2.532 7.67 7.67 0 0 1-.78-3.396M129.643 212.142v-9.853h1.502v1.494c.384-.699.738-1.16 1.062-1.382a1.856 1.856 0 0 1 1.073-.334c.562 0 1.134.18 1.716.538l-.576 1.55c-.408-.242-.816-.363-1.224-.363-.365 0-.693.11-.984.33-.291.22-.498.524-.622.914a6.518 6.518 0 0 0-.277 1.948v5.158h-1.67zM137.064 207.04c0 1.293.257 2.236.77 2.83.514.593 1.157.89 1.93.89.767 0 1.41-.295 1.93-.886.519-.59.779-1.517.779-2.778 0-1.206-.267-2.116-.803-2.728-.535-.612-1.18-.918-1.934-.918-.742 0-1.373.3-1.893.904-.52.603-.78 1.499-.78 2.686m-1.381 5.919l1.624.24c.068.502.256.867.566 1.096.414.309.98.464 1.698.464.772 0 1.369-.155 1.79-.464.42-.31.705-.742.853-1.3.087-.34.127-1.053.12-2.142-.73.86-1.638 1.29-2.726 1.29-1.356 0-2.403-.49-3.146-1.466-.742-.977-1.113-2.15-1.113-3.516 0-.94.17-1.808.51-2.602.34-.795.834-1.41 1.48-1.842.646-.433 1.406-.65 2.278-.65 1.163 0 2.12.47 2.876 1.41v-1.187h1.54v8.517c0 1.533-.156 2.62-.47 3.26-.311.64-.806 1.146-1.483 1.517-.677.372-1.511.557-2.5.557-1.175 0-2.124-.264-2.85-.793-.722-.53-1.071-1.326-1.047-2.39M152.846 207.197c-.606.248-1.516.458-2.73.631-.684.1-1.17.21-1.455.334a1.47 1.47 0 0 0-.66.542 1.434 1.434 0 0 0-.23.794c0 .445.168.816.506 1.113.337.297.83.445 1.479.445.644 0 1.215-.14 1.717-.422.5-.28.868-.666 1.103-1.155.18-.377.27-.933.27-1.67v-.612zm.139 3.73c-.618.525-1.214.896-1.786 1.113a5.173 5.173 0 0 1-1.841.324c-1.083 0-1.915-.264-2.496-.792-.581-.53-.872-1.205-.872-2.028 0-.482.109-.923.329-1.322.219-.399.506-.719.863-.96a4.063 4.063 0 0 1 1.2-.547c.329-.087.823-.17 1.485-.25 1.349-.162 2.34-.353 2.979-.576.006-.229.009-.374.009-.436 0-.68-.157-1.16-.474-1.438-.426-.377-1.06-.566-1.901-.566-.785 0-1.365.138-1.74.413-.374.275-.651.762-.83 1.461l-1.632-.223c.148-.698.392-1.263.732-1.693.34-.43.832-.76 1.475-.993.643-.23 1.388-.347 2.236-.347.84 0 1.524.1 2.05.297.526.198.913.446 1.16.747.247.3.42.678.519 1.136.056.284.083.798.083 1.54v2.226c0 1.553.037 2.535.108 2.946.07.411.212.806.422 1.183h-1.744a3.535 3.535 0 0 1-.334-1.216zM157.121 212.142v-9.853h1.504v1.401c.723-1.082 1.768-1.623 3.135-1.623.593 0 1.14.106 1.637.32.498.213.871.493 1.12.84.246.346.42.757.518 1.233.062.31.093.851.093 1.624v6.058h-1.67v-5.993c0-.68-.066-1.189-.194-1.527a1.619 1.619 0 0 0-.692-.806c-.33-.2-.719-.302-1.164-.302-.712 0-1.326.226-1.842.677-.516.452-.775 1.308-.775 2.57v5.381h-1.67zM167.698 212.143h1.67v-9.853h-1.67v9.853zm0-11.681h1.67v-1.92h-1.67v1.92zM171.028 212.142v-1.354l6.27-7.2c-.71.037-1.337.056-1.881.056h-4.018v-1.355h8.053v1.104l-5.334 6.253-1.03 1.142c.748-.056 1.45-.084 2.106-.084h4.555v1.438h-8.721zM187.7 207.197c-.606.248-1.516.458-2.73.631-.684.1-1.17.21-1.456.334a1.47 1.47 0 0 0-.659.542 1.434 1.434 0 0 0-.23.794c0 .445.167.816.506 1.113.337.297.83.445 1.478.445.644 0 1.215-.14 1.718-.422.5-.28.868-.666 1.102-1.155.18-.377.27-.933.27-1.67v-.612zm.139 3.73c-.619.525-1.214.896-1.786 1.113a5.173 5.173 0 0 1-1.841.324c-1.083 0-1.915-.264-2.496-.792-.582-.53-.873-1.205-.873-2.028 0-.482.11-.923.33-1.322.219-.399.506-.719.863-.96a4.063 4.063 0 0 1 1.2-.547c.329-.087.823-.17 1.484-.25 1.35-.162 2.341-.353 2.98-.576.006-.229.008-.374.008-.436 0-.68-.156-1.16-.474-1.438-.425-.377-1.06-.566-1.9-.566-.786 0-1.365.138-1.74.413-.374.275-.651.762-.83 1.461l-1.633-.223c.149-.698.393-1.263.732-1.693.34-.43.833-.76 1.476-.993.643-.23 1.387-.347 2.236-.347.84 0 1.524.1 2.05.297.525.198.912.446 1.16.747.246.3.42.678.519 1.136.055.284.083.798.083 1.54v2.226c0 1.553.036 2.535.107 2.946.07.411.213.806.423 1.183h-1.744a3.535 3.535 0 0 1-.334-1.216zM195.621 210.649l.241 1.475a6.19 6.19 0 0 1-1.262.149c-.606 0-1.076-.097-1.41-.288a1.608 1.608 0 0 1-.705-.757c-.135-.311-.204-.97-.204-1.972v-5.667h-1.224v-1.3h1.224v-2.44l1.66-1.001v3.441h1.68v1.3h-1.68v5.76c0 .478.03.784.09.92a.692.692 0 0 0 .286.323c.133.081.324.121.572.121.185 0 .43-.022.732-.064M197.264 212.143h1.67v-9.853h-1.67v9.853zm0-11.681h1.67v-1.92h-1.67v1.92zM202.57 207.216c0 1.262.275 2.207.826 2.834a2.647 2.647 0 0 0 2.078.942c.829 0 1.519-.316 2.07-.946.549-.631.825-1.593.825-2.886 0-1.218-.277-2.141-.83-2.77-.554-.627-1.242-.941-2.065-.941-.835 0-1.527.313-2.078.937-.551.625-.825 1.568-.825 2.83m-1.717 0c0-1.824.507-3.176 1.522-4.054.847-.73 1.88-1.095 3.098-1.095 1.355 0 2.462.444 3.322 1.33.859.889 1.289 2.115 1.289 3.68 0 1.268-.19 2.265-.571 2.992a4.032 4.032 0 0 1-1.66 1.693 4.836 4.836 0 0 1-2.38.603c-1.38 0-2.494-.442-3.344-1.327-.851-.884-1.276-2.158-1.276-3.822M212.041 212.142v-9.853h1.504v1.401c.723-1.082 1.768-1.623 3.135-1.623.593 0 1.14.106 1.637.32.498.213.871.493 1.12.84.246.346.42.757.518 1.233.062.31.093.851.093 1.624v6.058h-1.67v-5.993c0-.68-.066-1.189-.194-1.527a1.619 1.619 0 0 0-.692-.806c-.33-.2-.719-.302-1.164-.302-.712 0-1.326.226-1.842.677-.516.452-.775 1.308-.775 2.57v5.381h-1.67z"/><g fill="#267DDC"><path d="M380.596 74.63a3.403 3.403 0 0 0-3.403 3.404c0 27.4-22.292 49.692-49.693 49.692-27.401 0-49.693-22.293-49.693-49.692 0-26.257 20.471-47.807 46.29-49.564v49.564a3.404 3.404 0 0 0 6.807 0V24.937a3.403 3.403 0 0 0-3.404-3.404c-31.153 0-56.5 25.347-56.5 56.5 0 31.155 25.347 56.5 56.5 56.5 31.154 0 56.5-25.345 56.5-56.5a3.403 3.403 0 0 0-3.404-3.403"/><path d="M310 59.945v18.176c0 1.884 1.567 3.412 3.5 3.412s3.5-1.528 3.5-3.412V59.945c0-1.884-1.567-3.412-3.5-3.412s-3.5 1.528-3.5 3.412M366.5 81.533c1.933 0 3.5-1.527 3.5-3.41v-35.18c0-1.883-1.567-3.41-3.5-3.41-1.934 0-3.5 1.527-3.5 3.41v35.18c0 1.883 1.566 3.41 3.5 3.41M340.5 81.533c1.934 0 3.5-1.518 3.5-3.39V26.923c0-1.872-1.566-3.39-3.5-3.39-1.933 0-3.5 1.518-3.5 3.39v51.218c0 1.873 1.567 3.391 3.5 3.391M353.5 81.533c1.933 0 3.5-1.53 3.5-3.416V31.95c0-1.887-1.567-3.417-3.5-3.417s-3.5 1.53-3.5 3.417v46.167c0 1.886 1.567 3.416 3.5 3.416M412 43.11v-7.577h3.131v7.23c0 2.155 1.07 3.014 2.879 3.014 1.808 0 2.898-.859 2.898-3.014v-7.23H424v7.577c0 3.707-2.664 5.423-6.009 5.423-3.327 0-5.991-1.716-5.991-5.423M429.84 35.533l6.17 8.241v-8.222H439v12.981h-2.84l-6.17-8.222v8.203H427v-12.98zM442 48.533v-13h9.924v2.675h-6.905v2.451h6.397v2.675h-6.397v2.525H452v2.674zM461.888 44.698c0-.738-.582-1.17-2.185-1.423l-1.355-.234c-2.899-.45-4.155-1.8-4.155-3.744 0-2.232 1.798-3.764 5.142-3.764 3.287 0 5.084 1.513 5.278 3.728h-2.997c-.155-.757-.946-1.189-2.242-1.189-1.334 0-2.089.432-2.089 1.243 0 .81.716 1.134 2.3 1.367l1.375.235c2.9.45 4.04 1.692 4.04 3.62 0 2.628-2.127 3.996-5.432 3.996-3.385 0-5.394-1.476-5.568-3.871h3.015c.116.828.967 1.332 2.591 1.332 1.45 0 2.282-.486 2.282-1.296M474.165 34.533c3.408 0 6.313 2.069 6.835 5.337h-3.213c-.427-1.392-1.57-2.378-3.563-2.378-2.305 0-4.03 1.662-4.03 4.04 0 2.38 1.725 4.042 4.03 4.042 1.993 0 3.136-.985 3.563-2.378H481c-.522 3.268-3.427 5.337-6.835 5.337-4.047 0-7.165-3.075-7.165-7 0-3.926 3.118-7 7.165-7M493.893 41.533c0-2.359-1.743-4.041-3.883-4.041-2.16 0-3.884 1.682-3.884 4.04 0 2.36 1.724 4.042 3.884 4.042 2.14 0 3.883-1.683 3.883-4.041m3.107 0c0 3.925-3.068 7-6.99 7s-7.01-3.075-7.01-7c0-3.926 3.088-7 7.01-7 3.922 0 6.99 3.074 6.99 7M412 70.533h3v-13h-3zM420.84 57.533l6.17 8.24v-8.221H430v12.981h-2.84l-6.17-8.222v8.203H418v-12.98zM440.888 66.698c0-.738-.582-1.17-2.185-1.422l-1.355-.235c-2.899-.45-4.155-1.8-4.155-3.745 0-2.232 1.798-3.763 5.142-3.763 3.287 0 5.085 1.512 5.278 3.727h-2.996c-.155-.756-.947-1.188-2.243-1.188-1.334 0-2.089.432-2.089 1.242s.717 1.134 2.302 1.369l1.373.234c2.9.45 4.04 1.692 4.04 3.619 0 2.629-2.127 3.997-5.431 3.997-3.385 0-5.395-1.476-5.569-3.871h3.016c.115.828.967 1.333 2.59 1.333 1.45 0 2.282-.487 2.282-1.297M456 60.226h-3.973v10.307h-3.053V60.226H445v-2.693h11zM458 70.533h3v-13h-3zM475 60.226h-3.973v10.307h-3.053V60.226H464v-2.693h11zM477 65.11v-7.577h3.13v7.23c0 2.155 1.07 3.014 2.88 3.014 1.808 0 2.897-.859 2.897-3.013v-7.23H489v7.576c0 3.707-2.663 5.423-6.01 5.423-3.327 0-5.99-1.716-5.99-5.423M502 60.226h-3.973v10.307h-3.053V60.226H491v-2.693h11zM504 70.533v-13h9.924v2.675h-6.905v2.451h6.397v2.675h-6.397v2.525H514v2.674zM412 92.533v-13h10v2.693h-6.934v3.026h6.397v2.694h-6.397v4.587zM434.894 86.534c0-2.36-1.744-4.042-3.884-4.042-2.16 0-3.885 1.682-3.885 4.042 0 2.358 1.725 4.04 3.885 4.04 2.14 0 3.884-1.682 3.884-4.04m3.106 0c0 3.924-3.068 7-6.99 7-3.923 0-7.01-3.076-7.01-7 0-3.926 3.087-7 7.01-7 3.922 0 6.99 3.074 6.99 7M446.667 85.773c1.453 0 2.207-.65 2.207-1.802 0-1.132-.754-1.782-2.207-1.782h-2.723v3.584h2.723zm-2.723 6.76H441v-13h5.924c3.31 0 4.985 1.875 4.985 4.438 0 2.006-1.103 3.603-3.22 4.198L452 92.533h-3.292l-3.11-4.141h-1.654v4.141zM418.888 111.698c0-.738-.58-1.17-2.185-1.422l-1.353-.234c-2.9-.45-4.157-1.802-4.157-3.745 0-2.233 1.799-3.764 5.142-3.764 3.288 0 5.085 1.512 5.278 3.727h-2.996c-.155-.756-.947-1.189-2.242-1.189-1.334 0-2.09.433-2.09 1.243s.717 1.135 2.302 1.369l1.374.234c2.9.45 4.039 1.693 4.039 3.619 0 2.629-2.126 3.997-5.432 3.997-3.384 0-5.395-1.475-5.568-3.87h3.015c.116.827.967 1.332 2.592 1.332 1.45 0 2.281-.486 2.281-1.297M435 105.226h-3.973v10.307h-3.052v-10.307H424v-2.693h11zM439.203 110.192h3.556l-1.778-4.432-1.778 4.432zm4.623 2.69h-5.708l-1.049 2.651H434l5.522-13h2.975l5.503 13h-3.107l-1.067-2.651zM459 105.226h-3.974v10.307h-3.051v-10.307H448v-2.693h11zM462 115.533h3v-13h-3zM474.888 111.698c0-.738-.58-1.17-2.185-1.422l-1.353-.234c-2.9-.45-4.157-1.802-4.157-3.745 0-2.233 1.799-3.764 5.142-3.764 3.288 0 5.085 1.512 5.278 3.727h-2.996c-.155-.756-.947-1.189-2.242-1.189-1.334 0-2.09.433-2.09 1.243s.718 1.135 2.303 1.369l1.373.234c2.9.45 4.039 1.693 4.039 3.619 0 2.629-2.126 3.997-5.432 3.997-3.383 0-5.395-1.475-5.568-3.87h3.016c.115.827.966 1.332 2.59 1.332 1.45 0 2.282-.486 2.282-1.297M490 105.226h-3.973v10.307h-3.053v-10.307H479v-2.693h11zM493 115.533h3v-13h-3zM506.165 101.533c3.409 0 6.313 2.07 6.835 5.337h-3.214c-.426-1.392-1.569-2.378-3.563-2.378-2.304 0-4.028 1.662-4.028 4.042 0 2.378 1.724 4.04 4.028 4.04 1.994 0 3.137-.985 3.563-2.378H513c-.522 3.268-3.426 5.337-6.835 5.337-4.047 0-7.165-3.075-7.165-7 0-3.926 3.118-7 7.165-7M521.888 111.698c0-.738-.58-1.17-2.185-1.422l-1.353-.234c-2.901-.45-4.157-1.802-4.157-3.745 0-2.233 1.799-3.764 5.142-3.764 3.287 0 5.085 1.512 5.278 3.727h-2.996c-.155-.756-.948-1.189-2.243-1.189-1.333 0-2.088.433-2.088 1.243s.716 1.135 2.301 1.369l1.373.234c2.9.45 4.04 1.693 4.04 3.619 0 2.629-2.126 3.997-5.432 3.997-3.384 0-5.395-1.475-5.568-3.87h3.015c.116.827.967 1.332 2.59 1.332 1.451 0 2.283-.486 2.283-1.297"/></g></g></svg>