<svg height="512" viewBox="0 0 60 56" width="512" xmlns="http://www.w3.org/2000/svg" xmlns:xlink="http://www.w3.org/1999/xlink"><linearGradient id="linearGradient-1" x1="10.999%" x2="79.412%" y1="8.398%" y2="91.457%"><stop offset="0" stop-color="#d3dff2"/><stop offset=".17" stop-color="#d3dff2"/><stop offset=".2" stop-color="#d3dff2"/><stop offset=".2" stop-color="#dae2f2"/><stop offset=".2" stop-color="#ebeaf2"/><stop offset=".2" stop-color="#f6eff2"/><stop offset=".2" stop-color="#fdf2f2"/><stop offset=".2" stop-color="#fff3f2"/><stop offset=".25" stop-color="#fff3f2"/><stop offset=".26" stop-color="#fff3f2"/><stop offset=".26" stop-color="#d3dff2"/><stop offset=".4" stop-color="#d3dff2"/><stop offset=".42" stop-color="#d3dff2"/><stop offset=".42" stop-color="#dae2f2"/><stop offset=".42" stop-color="#ebeaf2"/><stop offset=".42" stop-color="#f6eff2"/><stop offset=".42" stop-color="#fdf2f2"/><stop offset=".42" stop-color="#fff3f2"/><stop offset=".49" stop-color="#fff3f2"/><stop offset=".5" stop-color="#fff3f2"/><stop offset=".5" stop-color="#f8f0f2"/><stop offset=".5" stop-color="#e7e8f2"/><stop offset=".5" stop-color="#dce3f2"/><stop offset=".5" stop-color="#d5e0f2"/><stop offset=".5" stop-color="#d3dff2"/><stop offset=".71" stop-color="#d3dff2"/><stop offset=".74" stop-color="#d3dff2"/><stop offset=".74" stop-color="#fff3f2"/><stop offset=".83" stop-color="#fff3f2"/><stop offset=".85" stop-color="#fff3f2"/><stop offset=".85" stop-color="#d3dff2"/></linearGradient><g id="018---Astronaut" fill="none"><g id="Icons_copy" transform="translate(1 2)"><path id="Shape" d="m22.13 30.34c-.8000019 2.3952715-1.2052881 4.9046682-1.2 7.43-.3683521.2634983-.7190989.5507766-1.05.86-2.19-1-6.47-1.7-11.37 1.37l-1.06.64c-.71670809.4310895-1.58083773.5434194-2.38394054.3098931-.80310281-.2335264-1.47226157-.7917061-1.84605946-1.5398931l-2.85-5.66c-.24843286-.5031975-.27402788-1.0876194-.07053735-1.6106091s.61734329-.9364264 1.14053735-1.1393909c4.5-1.66 6.06 3 6.06 3 3.9576172-3.5825385 9.4412495-4.9553219 14.62-3.66z" fill="#cad9fc"/><path id="Shape" d="m48.71 21.8-.43.92c-.8842737.1816441-1.8029113-.0544716-2.49-.64-3.3-2.74-2.85-2.37-3-2.45.9553413-.7364077 1.7830556-1.6249336 2.45-2.63l1.93.83c.7326808.3199082 1.307364.919032 1.5964969 1.6643941s.268796 1.5752998-.0564969 2.3056059z" fill="#a4c2f7"/><path id="Shape" d="m50.54 43.28c-3.61 4.32-8.48 4-12.7.37.6440864-.2985869 1.1614131-.8159136 1.46-1.46l.85-1.85c1.1408757 1.1666469 2.6487873 1.9047114 4.27 2.09 1.2072066-.0867748 2.3102058-.7154843 3-1.71.6004106-.6360177.8638159-1.518982.71-2.38-.35-2-2.51-4.15-4.46-5.71l1.73-3.72c5.31 3.88 9.23 9.45 5.14 14.37z" fill="#a4c2f7"/><path id="Shape" d="m28 18.5c-1.4672994 2.1978609-2.7708215 4.5007499-3.9 6.89-1.0101437.3072524-2.0487548.5116243-3.1.61-1.1354991-.0015529-2.172811-.644067-2.68-1.66l-4-8c-.7244553-1.4752873-.1269656-3.2588387 1.34-4 .4131528-.2185948.8726077-.3351729 1.34-.34 1.1354991.0015529 2.172811.644067 2.68 1.66l3 5.9 5.23-1.16c.0242891.0380616.0546984.0718497.09.1z" fill="#cad9fc"/><path id="Shape" d="m45.61 28.53-.17.37-1.73 3.72-3.56 7.71-.85 1.85c-.3394585.7390448-.9644218 1.3086026-1.7317161 1.5781925-.7672944.2695899-1.6111634.2161083-2.3382839-.1481925l-2.23-1.13c1.52-.71 3.46-2.41 4-6.48.51-3.57 2.84-6.88 5-9.26 1.0525837.8618343 2.2868476 1.4738377 3.61 1.79z" fill="#a4c2f7"/><path id="Shape" d="m56.44 25.63-4.44 2.05c-3.2144571 1.7487883-7.1677439 1.3771793-10-.94-2.17 2.38-4.5 5.69-5 9.26-.58 4.07-2.52 5.77-4 6.48-.6256324.3041233-1.3054666.4808802-2 .52 0 0-8.5 0-11 7l-.48 1.11c-.3321359.768585-.9703531 1.3633994-1.7603893 1.6406717s-1.6599987.211771-2.3996107-.1806717l-5.6-3c-.48858329-.2599772-.84759586-.7107892-.99161288-1.2451682-.14401702-.5343789-.06016178-1.1045454.23161288-1.5748318 2.73-4.31 7-.75 7-.75.2881708-2.8647552 1.6752887-5.5063726 3.87-7.37.3309011-.3092234.6816479-.5965017 1.05-.86-.0052881-2.5253318.3999981-5.0347285 1.2-7.43.5350061-1.7064835 1.1796816-3.3766271 1.93-5 1.147453-2.3736192 2.4676701-4.6597673 3.95-6.84 3.1193497 3.3481836 7.9857463 4.4154457 12.22 2.68.9512547-.3843963 1.8407795-.9066552 2.64-1.55.12.08-.33-.29 3 2.45.9439296.7851519 2.2710135.9158795 3.35.33l4.42-2c1.4445052-.7309425 3.2084095-.183946 3.9858971 1.2360487.7774877 1.4199948.288088 3.2007395-1.1058971 4.0239513z" fill="#e8edfc"/><path id="Shape" d="m57.63 21.56c-.7958826-1.4517717-2.617389-1.9843497-4.07-1.19h-.07c.4795632.2743194.8740617.6757389 1.14 1.16.7943497 1.452611.2617717 3.2741174-1.19 4.07l-4.44 2.08c-.8735068.4895548-1.8236027.8276673-2.81 1 1.9940123.3284142 4.0405295-.0238263 5.81-1l4.42-2.05c.7006499-.378789 1.2219099-1.0206536 1.448885-1.7841153.2269751-.7634616.1410323-1.585846-.238885-2.2858847z" fill="#cad9fc"/><path id="Shape" d="m39 26.74c-2.17 2.38-4.5 5.69-5 9.26-.58 4.07-2.52 5.77-4 6.48-.6256324.3041233-1.3054666.4808802-2 .52 0 0-8.5 0-11 7l-.48 1.11c-.2570208.5935386-.6989841 1.0881166-1.26 1.41h.1c.739612.3924427 1.6095745.457944 2.3996107.1806717s1.4282534-.8720867 1.7603893-1.6406717l.48-1.06c2.5-7 11-7 11-7 .6945334-.0391198 1.3743676-.2158767 2-.52 1.52-.71 3.46-2.41 4-6.48.6072236-2.9718151 1.9868821-5.731132 4-8-.7204733-.3278192-1.3932496-.7516683-2-1.26z" fill="#cad9fc"/><path id="Shape" d="m47 11c.0124711 2.1290457-.599423 4.2150484-1.76 6-.6544127 1.0169762-1.4720481 1.919078-2.42 2.67-.7992205.6433448-1.6887453 1.1656037-2.64 1.55-4.2311986 1.7070889-9.0770046.6249385-12.18-2.72-.0353016-.0281503-.0657109-.0619384-.09-.1-.5711568-.6030318-1.0649597-1.2748725-1.47-2 6.14 3.81 15.56.51 15.56-5.4 0-6.06-9.63-9.1-15.59-5.36 2.4478447-4.35683885 7.5249876-6.51612051 12.3612042-5.25715396 4.8362167 1.25896656 8.2160469 5.61977205 8.2287958 10.61715396z" fill="#e8edfc"/><path id="Shape" d="m36 0c-.5185775.00108852-1.0364662.03784191-1.55.11 4.3720685.58784546 7.9700499 3.73077244 9.1401692 7.98416708 1.1701193 4.25339462-.3139887 8.79441692-3.7701692 11.53583292-.7992205.6433448-1.6887453 1.1656037-2.64 1.55-.856608.350062-1.7535294.5919284-2.67.72 1.9203915.2695916 3.8779394.0210141 5.67-.72.9512547-.3843963 1.8407795-.9066552 2.64-1.55.9446428-.738883 1.7620967-1.627273 2.42-2.63 2.2028692-3.3848932 2.3737464-7.70472727.4451301-11.2530472-1.9286162-3.54831992-5.6465563-5.75446747-9.6851301-5.7469528z" fill="#cad9fc"/><path id="Shape" d="m42 11c0 5.91-9.42 9.21-15.6 5.36-.18-.32-.34-.65-.49-1-1.3727413-3.1390599-1.1837069-6.74183399.51-9.72 5.95-3.74 15.58-.7 15.58 5.36z" fill="url(#linearGradient-1)"/><path id="Shape" d="m31 4.1c4.26.52 8 3.12 8 6.9s-3.71 6.39-8 6.92c5.4.63 11-2.36 11-6.92s-5.68-7.51-11-6.9z" fill="#a4c2f7"/><path id="Shape" d="m17-.00000869v8.00001738l-9.79-.00000869c-.20185437.00118573-.38462264-.11912041-.46334587-.30499469-.07872322-.18587428-.03795811-.40085338.10334587-.54500531l2.8-2.8c.19057144-.19442176.19057144-.50557824 0-.7l-2.8-2.8c-.14130398-.14415193-.18206909-.35913103-.10334587-.54500531.07872323-.18587428.2614915-.30618042.46334587-.30499469z" fill="#e8edfc"/><path id="Rectangle-path" d="m14 0h3v8h-3z" fill="#cad9fc"/></g><g id="whites" fill="#fff" transform="translate(1 2)"><path id="Shape" d="m6.85 7.15c-.14130398.14415193-.18206909.35913103-.10334587.54500531.07872323.18587428.2614915.30618042.46334587.30499469h3c-.2018544.00118573-.38462264-.11912041-.46334587-.30499469-.07872322-.18587428-.03795811-.40085338.10334587-.54500531l2.8-2.8c.1905714-.19442176.1905714-.50557824 0-.7l-2.8-2.8c-.14130398-.14415193-.18206909-.35913103-.10334587-.54500531.07872323-.18587428.26149147-.30618042.46334587-.30499469h-3c-.20185437-.00118573-.38462264.11912041-.46334587.30499469-.07872322.18587428-.03795811.40085338.10334587.54500531l2.8 2.8c.19057144.19442176.19057144.50557824 0 .7z"/><path id="Shape" d="m12.76 49.62c-.5030817-.2590625-.8728764-.7191118-1.0177298-1.2661238-.1448533-.547012-.0512066-1.1297845.2577298-1.6038762.4621339-.8039734 1.160369-1.4463496 2-1.84-1.8915192-.7823863-4.06684568.0181339-5 1.84-.31041042.4715571-.40706562 1.0523407-.26611132 1.5990148s.50638741 1.0083129 1.00611132 1.2709852l5.5 2.9c.9319139.5218662 2.0680861.5218662 3 0z"/><path id="Shape" d="m6.21 39.41-2.84-5.66c-.24843286-.5031975-.27402788-1.0876194-.07053735-1.6106091s.61734329-.9364264 1.14053735-1.1393909l.27-.08c-1.06079606-.3884248-2.22946714-.3598335-3.27.08-.52860846.2023394-.94672899.6191854-1.15068115 1.1471737s-.17463522 1.1176712.08068115 1.6228263l2.84 5.66c.37446003.7368986 1.03637169 1.286645 1.82948761 1.519469.79311592.2328241 1.64715322.1280937 2.36051239-.289469-.51278576-.288235-.92731712-.7236671-1.19-1.25z"/></g><g id="Layer_2" fill="#428dff"><path id="Shape" d="m57.13 21.16c-1.0008514-.2951241-2.0774078-.1874684-3 .3l-3.13 1.48c.1920953-1.7332999-.7752036-3.3874623-2.38-4.07l-.91-.39c3.1535459-5.832127.982127-13.11645408-4.85-16.27s-13.1164541-.98212696-16.27 4.85v.06c-1.0502574 1.78087736-1.5996303 3.8125203-1.59 5.88.0017717 1.638623.3422274 3.2591923 1 4.76.173232.3931451.3668277.7769987.58 1.15.1578233.2893094.3314181.5697317.52.84l-2.92.65-2.61-5.21c-.4696256-.9502518-1.3023208-1.6712-2.31-2-.0852344-.0257655-.1720943-.0458101-.26-.06v-11.13c0-.55228475-.4477153-1-1-1h-9.79c-.60628331.00053327-1.15263151.3659901-1.38457395.92615297s-.10386666 1.20487339.32457395 1.63384703l2.44 2.44-2.44 2.44c-.42844061.42897364-.55651639 1.07368416-.32457395 1.633847.23194244.5601629.77829064.9256197 1.38457395.926153h8.79v2.13c-.2731873.0718254-.537998.1723864-.79.3-1.9687798.991077-2.7647965 3.3880711-1.78 5.36l4 8c.6766436 1.3522105 2.0579443 2.2073014 3.57 2.21.2923644.0008037.5839914-.0293646.87-.09l.5-.12c-.34.81-.64 1.6-.91 2.38-4.7973044-.9114532-9.755266.2752542-13.62 3.26-.57642936-.9954644-1.42686571-1.8042468-2.45-2.33-1.36187462-.6235274-2.92399492-.6416916-4.3-.05-.78657748.289252-1.41232291.9004452-1.72 1.68-.31069269.7990177-.270767 1.6919013.11 2.46l2.83 5.67c.50951564.977049 1.39952364 1.7006327 2.46 2 .36354126.1076287.74086435.161532 1.12.16.73746367.0211094 1.46679632-.1586313 2.11-.52l1-.65c2.6225856-1.8173912 5.8801551-2.4689051 9-1.8-1.3493134 1.5048214-2.2923877 3.3290162-2.74 5.3-1.0824084-.5841516-2.3181944-.8215342-3.54-.68-1.5030518.2745544-2.80494065 1.2060467-3.55 2.54-.45239294.7208989-.58632083 1.5968597-.37 2.42.21607421.8028767.75565903 1.4800738 1.49 1.87l5.6 3c.5765711.3033321 1.2185071.4612414 1.87.46 1.5942991-.0001629 3.0362661-.9470676 3.67-2.41l.51-1.17c2.23-6.28 9.74-6.38 10.06-6.38.6559784-.0299103 1.3019864-.1719644 1.91-.42l1.87.94c.5550682.2684533 1.1634241.4085803 1.78.41.3590764-.0035086.7158858-.0573666 1.06-.16 1.9177535 1.6276808 4.3264403 2.5643923 6.84 2.66 2.6964131-.0639376 5.2157353-1.3567476 6.84-3.51 1.5435762-1.7674883 2.2019434-4.1398172 1.79-6.45-.54-3-2.72-5.68-5-7.69 1.5152105-.0611814 2.9963358-.4682343 4.33-1.19l4.48-2.08c.9299518-.5077357 1.6204691-1.3636894 1.92-2.38.2997328-1.0201194.1809892-2.117598-.33-3.05-.5030701-.925862-1.3511502-1.6158255-2.36-1.92zm-9.35-.45c.4896552.2180686.8712834.6235623 1.0592861 1.1255295.1880028.5019673.1666438 1.0583925-.0592861 1.5444705l-.18.4c-.4374296-.0221384-.8554979-.1872578-1.19-.47l-2.05-1.71c.400921-.3810003.7720106-.7922078 1.11-1.23l.12-.17zm-2.89-13.86c3.0884317 4.0254223 2.6728437 9.7257448-.9667816 13.2606511-3.6396254 3.5349063-9.3496488 3.7839496-13.2832184.5793489.9396322.2045267 1.8983673.3084455 2.86.31 1.3204712.0062238 2.634631-.1824761 3.9-.56 1.5985919-.4726506 3.0666373-1.3076228 4.29-2.44 1.4208906-1.2809865 2.2555916-3.0876987 2.31-5-.0544084-1.9123013-.8891094-3.7190135-2.31-5-2.2570751-1.99186784-5.180349-3.06266414-8.19-3-.9682452.00149476-1.9336162.10540622-2.88.31 2.0806097-1.7274022 4.7721196-2.53851311 7.4607376-2.24836092s5.145104 1.65682817 6.8092624 3.78836092zm-16.72 10.78c-.12-.22-.25-.44-.35-.67-.5479404-1.2479128-.8273194-2.5971092-.82-3.96-.0024789-1.6099272.3888951-3.19602206 1.14-4.62 1.6348903-.92169265 3.4832809-1.39758426 5.36-1.38 2.495029-.07658473 4.9270574.79123158 6.81 2.43 1.0422827.8978859 1.6561878 2.1947149 1.69 3.57-.0347393 1.3779143-.6482198 2.6774765-1.69 3.58-.9984752.9067127-2.1928328 1.570625-3.49 1.94-1.0762947.3257617-2.1955119.4875763-3.32.48-1.8658958.0172461-3.7036906-.4551327-5.33-1.37zm-18.76-8.63 1.94-1.94c.2833721-.27993388.442861-.66167514.442861-1.06s-.1594889-.78006612-.442861-1.06l-1.94-1.94h7.59v6zm13 18c-.1363058.0140453-.2736942.0140453-.41 0-.758944-.0004027-1.45227-.4303423-1.79-1.11l-4-8c-.232532-.4736393-.2684754-1.0199787-.1-1.52.1662169-.5040338.5259576-.921333 1-1.16.4736393-.232532 1.0199787-.2684754 1.52-.1.5040338.1662169.921333.5259576 1.16 1l3 5.9c.2047463.410242.6622502.6286898 1.11.53l3.06-.68c-.75 1.24-1.65 2.84-2.53 4.66zm-13.41 14.14-1.06.64c-.47436795.2970971-1.05152674.3818175-1.59126481.2335795-.53973806-.1482379-.99265984-.5158677-1.24873519-1.0135795l-2.83-5.7c-.12023812-.2636029-.12023812-.5663971 0-.83.10390748-.2519924.3061765-.4506494.56-.55.86899354-.3863464 1.86100646-.3863464 2.73 0 .93209379.5445089 1.64079102 1.4020326 2 2.42.10617171.3188418.36539299.5630357.69.65.32415647.0855163.66959784.0029108.92-.22 3.4429783-3.1125628 8.127462-4.466268 12.7-3.67-.5712309 1.9950759-.8837892 4.0552718-.93 6.13l-.28.23c-1.92-.7-6.35-1.64-11.66 1.68zm27.7 3.59-.7-.36c1.7399259-1.6313537 2.8095125-3.8525283 3-6.23.44-3.08 2.39-6 4.16-8 .650927.4151723 1.3492324.7508961 2.08 1l-5.85 12.63c-.217576.5000765-.6299272.8896163-1.1415638 1.0784121s-1.078181.1604721-1.5684362-.0784121zm11.5-4.22c.1027276.5719426-.0801888 1.1580218-.49 1.57-1 1.21-1.76 1.35-2.27 1.35-.8825758-.0685218-1.7280939-.3838584-2.44-.91-.22-.15-.43-.31-.61-.45l2.69-5.83c1.8 1.61 2.92 3.11 3.1 4.27zm4-.7c.2996326 1.732783-.2002602 3.5081376-1.36 4.83-1.2566482 1.7064523-3.2314484 2.7363015-5.35 2.79-1.7855207-.0727339-3.5059642-.6904185-4.93-1.77.2902106-.2941435.5330919-.6314786.72-1l.32-.69.36.26c1.0386287.7635267 2.2819367 1.1988586 3.57 1.25 1.5076807-.0751085 2.897435-.8381831 3.77-2.07.7871533-.8620066 1.1305898-2.0400307.93-3.19-.38-2.13-2.38-4.26-4.22-5.82l.88-1.89c2 1.63 4.71 4.32 5.24 7.3zm5.79-14.25c-.1344757.4906297-.4581696.9078352-.9 1.16l-4.55 2.08c-1.7317377.9655013-3.76557 1.2371555-5.69.76-1.1702963-.273054-2.2640408-.8062545-3.2-1.56-.4125444-.3416367-1.0210195-.2975443-1.38.1-2.09 2.29-4.7 5.85-5.26 9.79-.52 3.62-2.17 5.1-3.47 5.71-.4834926.2293183-1.0060245.3650409-1.54.4-.38 0-9.24.09-11.92 7.6l-.48 1.12c-.2214658.5102179-.6453998.9051649-1.17 1.09-.5267064.1850619-1.1067899.1415556-1.6-.12l-5.6-3c-.2415288-.130627-.4187169-.354824-.49-.62-.0804728-.2778249-.036708-.5768845.12-.82.4437911-.821689 1.2263344-1.4067681 2.14-1.6 1.212339-.0442196 2.3994055.3538386 3.34 1.12.2796884.2306551.662307.291874 1 .16.3606566-.1276384.6168819-.4498611.66-.83.91-9.1 13-11.1 13.15-11.1.3572656-.0535898.6588028-.2937078.7910254-.6299038.1322227-.336196.075043-.7173939-.15-1-.2250429-.2826062-.5837598-.4236861-.9410254-.3700962-2.7586954.4949907-5.4131734 1.4553369-7.85 2.84.1766245-1.7655586.5351949-3.5081439 1.07-5.2.5378645-1.6501666 1.1825604-3.2635767 1.93-4.83.9303309-1.9798367 1.9823432-3.9001766 3.15-5.75 4.0988611 3.6364966 10.1606835 3.9760249 14.64.82l2.36 2c.8679151.7378408 2.0150436 1.0593291 3.14.88h.2.06c.3478627-.0749842.684164-.1960526 1-.36l4.45-2.15c.4641321-.255814 1.0108212-.3169569 1.52-.17.518704.1529089.9500447.5153801 1.19 1 .2586603.4476472.3339226.9780674.21 1.48z"/><path id="Shape" d="m35 9c0-.55228475-.4477153-1-1-1-2.08 0-6 1-6 5 0 .5522847.4477153 1 1 1s1-.4477153 1-1c0-2.94 3.82-3 4-3 .5522847 0 1-.44771525 1-1z"/><path id="Shape" d="m7 19c-.55228475 0-1 .4477153-1 1v1h-1c-.55228475 0-1 .4477153-1 1s.44771525 1 1 1h1v1c0 .5522847.44771525 1 1 1s1-.4477153 1-1v-1h1c.55228475 0 1-.4477153 1-1s-.44771525-1-1-1h-1v-1c0-.5522847-.44771525-1-1-1z"/><path id="Shape" d="m34 52h-1v-1c0-.5522847-.4477153-1-1-1s-1 .4477153-1 1v1h-1c-.5522847 0-1 .4477153-1 1s.4477153 1 1 1h1v1c0 .5522847.4477153 1 1 1s1-.4477153 1-1v-1h1c.5522847 0 1-.4477153 1-1s-.4477153-1-1-1z"/><path id="Shape" d="m53 7c.5522847 0 1-.44771525 1-1v-1h1c.5522847 0 1-.44771525 1-1s-.4477153-1-1-1h-1v-1c0-.55228475-.4477153-1-1-1s-1 .44771525-1 1v1h-1c-.5522847 0-1 .44771525-1 1s.4477153 1 1 1h1v1c0 .55228475.4477153 1 1 1z"/></g></g></svg>