<?xml version="1.0" encoding="iso-8859-1"?>
<!-- Generator: Adobe Illustrator 19.0.0, SVG Export Plug-In . SVG Version: 6.00 Build 0)  -->
<svg version="1.1" id="Capa_1" xmlns="http://www.w3.org/2000/svg" xmlns:xlink="http://www.w3.org/1999/xlink" x="0px" y="0px"
	 viewBox="0 0 512.069 512.069" style="enable-background:new 0 0 512.069 512.069;" xml:space="preserve">
<g transform="translate(0 -1)">
	<g transform="translate(1 1)">
		<g>
			<polyline style="fill:#AF8066;" points="143.845,167.834 58.767,204.869 7.567,247.535 58.767,269.807 58.767,418.202 
				255.034,503.535 451.301,418.202 451.045,418.117 451.301,417.434 451.301,269.039 502.501,246.767 451.301,204.101 
				451.301,204.869 367.418,168.431 			"/>
			<g>
				<path style="fill:#A4C2F7;" d="M451.301,204.869l-195.669,85.077l-0.597,0.256L58.767,204.869l85.077-37.035
					c25.344,33.536,72.192,65.792,112.043,88.235c39.68-22.272,86.187-54.357,111.531-87.637L451.301,204.869z"/>
				<polygon style="fill:#A4C2F7;" points="451.301,417.434 451.045,418.117 451.301,418.202 425.701,429.295 255.034,503.535 
					255.034,290.202 255.631,289.946 306.234,332.101 451.301,269.039 				"/>
			</g>
			<g>
				<polygon style="fill:#E3E7F2;" points="425.701,281.669 425.701,429.295 255.034,503.535 255.034,323.397 255.034,290.202 
					306.234,332.101 				"/>
				<polygon style="fill:#E3E7F2;" points="255.034,290.202 255.034,503.535 58.767,418.202 58.767,269.807 203.834,332.869 				"/>
				<polygon style="fill:#E3E7F2;" points="255.034,290.202 203.834,332.869 58.767,269.807 7.567,247.535 58.767,204.869 				"/>
			</g>
			<polygon style="fill:#7FABFA;" points="502.501,246.767 451.301,269.039 306.234,332.101 304.613,330.735 255.631,289.946 
				427.322,215.279 451.301,204.869 451.301,204.101 			"/>
			<polygon style="fill:#E3E7F2;" points="476.303,256.069 425.103,278.341 304.613,330.735 255.631,289.946 427.322,215.279 			"/>
		</g>
		<path style="fill:#E3E7F2;" d="M377.317,25.413c-17.417-13.73-39.824-19.464-61.696-15.787
			c-25.211,3.948-47.223,19.231-59.733,41.472c-3.611-6.1-7.906-11.768-12.8-16.896c-18.608-19.711-45.776-28.916-72.533-24.576
			c-13.242,1.887-25.72,7.345-36.096,15.787c-30.293,25.685-30.293,76.885,0,128.171c2.778,4.972,5.915,9.735,9.387,14.251
			c22.699,30.037,62.549,58.965,99.243,80.811c4.352,2.56,8.619,5.035,12.8,7.424c39.68-22.272,86.187-54.357,111.531-87.637
			c3.698-4.672,7.009-9.638,9.899-14.848C407.695,102.298,407.695,51.098,377.317,25.413z"/>
		<path style="fill:#A4C2F7;" d="M377.317,153.583c-2.89,5.21-6.201,10.176-9.899,14.848
			c-25.344,33.28-71.851,65.365-111.531,87.637c-4.181-2.389-8.448-4.864-12.8-7.424c36.523-21.675,76.032-50.432,98.731-80.213
			c3.698-4.672,7.009-9.638,9.899-14.848c30.379-51.285,30.379-102.485,0-128.171c-10.376-8.442-22.854-13.899-36.096-15.787
			c21.872-3.677,44.279,2.057,61.696,15.787C407.695,51.098,407.695,102.298,377.317,153.583z"/>
	</g>
	<g>
		<g>
			<path style="fill:#FFFFFF;" d="M85.367,419.202V270.807l-51.2-22.272l51.2-42.667l85.077-37.035
				c-3.472-4.515-6.609-9.278-9.387-14.251c-30.293-51.285-30.293-102.485,0-128.171c10.339-8.409,22.767-13.855,35.958-15.756
				c-8.436-1.313-17.023-1.324-25.462-0.03c-13.242,1.887-25.72,7.345-36.096,15.787c-30.293,25.685-30.293,76.885,0,128.171
				c2.778,4.972,5.915,9.735,9.387,14.251l-85.077,37.035l-51.2,42.667l51.2,22.272v148.395l196.267,85.333l12.8-5.565
				L85.367,419.202z"/>
			<polygon style="fill:#FFFFFF;" points="68.301,270.807 68.301,381.741 68.301,419.202 51.234,419.202 51.234,381.741 
				51.234,270.807 			"/>
		</g>
		<g>
			<path style="fill:#428DFF;" d="M59.767,347.607c3.45-0.014,6.556-2.096,7.879-5.282c1.323-3.187,0.606-6.856-1.82-9.31
				l-1.279-1.025c-0.476-0.324-0.993-0.583-1.538-0.771c-0.484-0.246-1.003-0.417-1.538-0.508c-0.563-0.096-1.133-0.153-1.704-0.171
				c-2.259,0.032-4.423,0.915-6.059,2.475c-2.07,1.994-2.979,4.908-2.409,7.726c0.57,2.818,2.539,5.149,5.222,6.183
				C57.548,347.362,58.651,347.594,59.767,347.607z"/>
			<path style="fill:#428DFF;" d="M457.767,198.544c-1.492-1.204-3.347-1.87-5.264-1.889l-71.024-30.848
				c1.476-2.286,2.92-4.578,4.197-6.888c32.467-54.817,31.725-110.675-1.842-139.008C364.102,4.349,338.66-2.038,313.917,2.36
				c-22.696,3.867-43.074,16.214-57.008,34.542C242.975,18.575,222.597,6.227,199.901,2.36c-24.742-4.401-50.186,1.986-69.917,17.55
				c-33.567,28.333-34.308,84.192-1.967,138.783c1.196,2.164,2.558,4.306,3.927,6.447l-75.585,32.903
				c-0.661,0.303-1.281,0.69-1.843,1.151c-0.067,0.052-0.149,0.061-0.215,0.116l-51.2,42.667c-2.274,1.896-3.403,4.835-2.984,7.766
				s2.327,5.435,5.042,6.617l46.075,20.032v28.549c0,4.713,3.821,8.533,8.533,8.533s8.533-3.821,8.533-8.533v-21.129l133.133,57.882
				c2.958,1.286,6.388,0.796,8.867-1.267l37.2-31v182.095l-179.2-77.913v-40.401c0-4.713-3.821-8.533-8.533-8.533
				s-8.533,3.82-8.533,8.533v45.995h0.013c-0.005,3.396,2.006,6.47,5.12,7.825l196.267,85.333l0.03,0.006
				c0.134,0.057,0.289,0.057,0.426,0.108c0.925,0.364,1.906,0.562,2.899,0.586l0.038,0.008l0.005-0.001l0.004,0.001l0.004-0.001
				l0.005,0.001l0.037-0.008c0.993-0.024,1.974-0.222,2.898-0.586c0.138-0.051,0.293-0.051,0.427-0.108l0.029-0.006l196.267-85.333
				c3.256-1.414,5.297-4.696,5.125-8.242l-0.031-0.153c0.002-0.069,0.04-0.127,0.04-0.197V275.623l46.067-20.029
				c2.717-1.179,4.629-3.683,5.05-6.615c0.421-2.932-0.708-5.872-2.983-7.769L457.767,198.544z M140.992,32.96
				c12.372-9.84,27.778-15.077,43.584-14.816c27.016-0.032,51.913,14.627,64.992,38.267c1.652,2.432,4.402,3.888,7.342,3.888
				s5.689-1.456,7.342-3.888c11.064-19.632,30.328-33.287,52.517-37.225c19.796-3.618,40.194,1.394,56.058,13.775
				c26.967,22.758,26.225,69.875-1.958,117.483c-22.567,40.817-84.275,79.767-113.958,96.808
				c-29.683-17.042-91.392-56-114.083-97.033C114.767,102.835,114.026,55.719,140.992,32.96z M142.267,179.264
				c29.893,36.532,80.134,68.175,110.458,85.238c2.596,1.467,5.771,1.467,8.367,0c30.188-16.986,80.115-48.422,109.981-84.612
				l59.819,25.979l-174.865,76.027L81.159,205.86L142.267,179.264z M203.409,323.944l-178.75-77.708l36.536-30.442l178.739,77.713
				L203.409,323.944z M443.767,413.605l-179.2,77.917V308.659l37.208,31.001c2.476,2.063,5.904,2.553,8.858,1.267l133.133-57.884
				V413.605z M308.659,323.177l-35.92-29.928l178.743-77.72l35.919,29.932L308.659,323.177z"/>
			<path style="fill:#428DFF;" d="M179.234,69.335c2.264,0.001,4.435-0.897,6.035-2.498c1.601-1.601,2.499-3.772,2.498-6.035v-8.533
				c0-4.713-3.821-8.533-8.533-8.533s-8.533,3.821-8.533,8.533v8.533c-0.001,2.264,0.897,4.435,2.498,6.035
				C174.799,68.438,176.97,69.337,179.234,69.335z"/>
			<path style="fill:#428DFF;" d="M179.234,86.402c-2.264-0.001-4.435,0.897-6.035,2.498c-1.601,1.601-2.499,3.772-2.498,6.035
				v8.533c0,4.713,3.82,8.533,8.533,8.533s8.533-3.821,8.533-8.533v-8.533c0.001-2.264-0.897-4.435-2.498-6.035
				C183.669,87.299,181.498,86.401,179.234,86.402z"/>
			<path style="fill:#428DFF;" d="M153.634,86.402h8.533c4.713,0,8.533-3.821,8.533-8.533c0-4.713-3.821-8.533-8.533-8.533h-8.533
				c-4.713,0-8.533,3.82-8.533,8.533C145.101,82.582,148.921,86.402,153.634,86.402z"/>
			<path style="fill:#428DFF;" d="M196.301,86.402h8.533c4.713,0,8.533-3.821,8.533-8.533c0-4.713-3.82-8.533-8.533-8.533h-8.533
				c-4.713,0-8.533,3.82-8.533,8.533C187.767,82.582,191.588,86.402,196.301,86.402z"/>
		</g>
	</g>
</g>
<g>
</g>
<g>
</g>
<g>
</g>
<g>
</g>
<g>
</g>
<g>
</g>
<g>
</g>
<g>
</g>
<g>
</g>
<g>
</g>
<g>
</g>
<g>
</g>
<g>
</g>
<g>
</g>
<g>
</g>
</svg>
