<?xml version="1.0" encoding="iso-8859-1"?>
<!-- Generator: Adobe Illustrator 19.0.0, SVG Export Plug-In . SVG Version: 6.00 Build 0)  -->
<svg version="1.1" id="Layer_1" xmlns="http://www.w3.org/2000/svg" xmlns:xlink="http://www.w3.org/1999/xlink" x="0px" y="0px"
	 viewBox="0 0 503.467 503.467" style="enable-background:new 0 0 503.467 503.467;" xml:space="preserve">
<g transform="translate(7 1)">
	<g>
		<path style="fill:#AE938D;" d="M237.693,207.213c10.24,10.24,10.24,26.453,0,35.84c-10.24,10.24-26.453,10.24-35.84,0
			l-84.48-84.48l-11.947-11.947c-10.24-10.24-10.24-26.453,0-35.84c10.24-10.24,26.453-10.24,35.84,0L195.88,165.4L237.693,207.213z
			"/>
		<path style="fill:#AE938D;" d="M231.72,128.707c10.24,10.24,10.24,26.453,0,35.84c-10.24,10.24-26.453,10.24-35.84,0
			l-54.613-54.613L129.32,97.987c-10.24-10.24-10.24-26.453,0-35.84c10.24-10.24,26.453-10.24,36.693,0l3.413,3.413L231.72,128.707z
			"/>
		<path style="fill:#AE938D;" d="M237.693,278.893c10.24,10.24,10.24,26.453,0,36.693c-10.24,10.24-26.453,10.24-35.84,0l-38.4-38.4
			L93.48,207.213l-11.947-11.947c-10.24-10.24-10.24-26.453,0-36.693c10.24-10.24,26.453-10.24,35.84,0l84.48,84.48L237.693,278.893
			z"/>
		<path style="fill:#AE938D;" d="M421.16,253.293c11.947,15.36,20.48,36.693,20.48,65.707c0,59.733-68.267,145.067-68.267,162.133
			V498.2h-204.8V447h51.2c8.533,0,17.067-8.533,17.067-8.533l93.867-85.333c0,0,34.133-34.133,34.133-42.667
			c0-8.533,0-8.533-8.533-17.067l-42.667-42.667c-17.067-17.067-34.133-25.6-34.133-42.667c0-13.653,12.8-40.96,25.6-34.133
			c0,0,64.853,37.547,85.333,51.2C401.533,232.813,412.627,241.347,421.16,253.293"/>
		<path style="fill:#AE938D;" d="M162.6,276.333c10.24,10.24,10.24,26.453,0,35.84c-10.24,10.24-26.453,10.24-35.84,0l-20.48-20.48
			L56.786,242.2c-10.24-10.24-10.24-26.453,0-35.84c10.24-10.24,26.453-10.24,35.84,0L162.6,276.333z"/>
	</g>
	<path style="fill:#FFD0A1;" d="M162.6,276.333l38.4,38.4c10.24,10.24,26.453,10.24,35.84,0c10.24-10.24,10.24-26.453,0-36.693
		L201,242.2c10.24,10.24,26.453,10.24,35.84,0c10.24-10.24,10.24-26.453,0-35.84l-42.667-42.667c10.24,10.24,26.453,10.24,35.84,0
		c10.24-10.24,10.24-26.453,0-35.84l-63.147-63.147V3.267h204.8v68.267c0,17.067,51.2,51.2,51.2,136.533v43.52l-2.56,2.56
		c-9.387-11.947-20.48-21.333-30.72-28.16c-20.48-13.653-85.333-51.2-85.333-51.2c-12.8-6.827-25.6,20.48-25.6,34.133
		c0,17.067,17.067,25.6,34.133,42.667l42.667,42.667c8.533,8.533,8.533,8.533,8.533,17.067s-34.133,42.667-34.133,42.667
		l-93.867,85.333c0,0-8.533,8.533-17.067,8.533h-51.2h-25.6c-14.507,0-25.6-11.093-25.6-25.6s11.093-25.6,25.6-25.6h-25.6
		c-14.507,0-25.6-11.093-25.6-25.6s11.093-25.6,25.6-25.6h-25.6c-14.507,0-25.6-11.093-25.6-25.6c0-6.827,2.56-12.8,6.827-17.067
		c0,0,6.827-8.533,19.627-8.533h13.653l0.853-0.853l20.48,20.48c10.24,10.24,26.453,10.24,35.84,0
		C172.84,302.787,172.84,286.573,162.6,276.333"/>
</g>
<path style="fill:#51565F;" d="M380.373,503.467c-2.56,0-4.267-1.707-4.267-4.267v-17.067c0-6.827,6.827-18.773,19.627-40.96
	c19.627-33.28,48.64-83.627,48.64-121.173c0-51.2-26.453-75.093-49.493-90.453c-19.627-12.8-84.48-50.347-85.333-51.2
	c-0.853-0.853-2.56-0.853-5.12,0.853c-7.68,4.267-13.653,20.48-13.653,29.867c0,10.24,7.68,17.92,19.627,27.307
	c4.267,3.413,8.533,7.68,13.653,12.8l42.667,42.667c9.387,9.387,9.387,10.24,9.387,20.48c0,9.387-24.747,34.987-34.987,46.08
	l-93.867,85.333c-0.853,0.853-10.24,9.387-19.627,9.387h-76.8c-16.213,0-29.867-13.653-29.867-29.867
	c0-8.533,3.413-16.213,9.387-21.333h-5.12c-16.213,0-29.867-13.653-29.867-29.867c0-8.533,3.413-16.213,9.387-21.333h-5.12
	c-16.213,0-29.867-13.653-29.867-29.867c0-7.68,2.56-14.507,7.68-19.627c1.707-1.707,4.267-1.707,5.973,0
	c1.707,1.707,1.707,4.267,0,5.973c-3.413,4.267-5.12,9.387-5.12,14.507c0,11.947,9.387,21.333,21.333,21.333h93.867
	c2.56,0,4.267,1.707,4.267,4.267c0,2.56-1.707,4.267-4.267,4.267h-68.267c-11.947,0-21.333,9.387-21.333,21.333
	c0,11.947,9.387,21.333,21.333,21.333h85.333c5.12,0,11.947-5.12,13.653-7.68l59.733-59.733c1.707-1.707,4.267-1.707,5.973,0
	c1.707,1.707,1.707,4.267,0,5.973l-59.733,59.733c-0.853,0.853-10.24,9.387-20.48,9.387h-59.733
	c-11.947,0-21.333,9.387-21.333,21.333c0,11.947,9.387,21.333,21.333,21.333h76.8c5.12,0,11.947-5.12,13.653-7.68l93.867-85.333
	c15.36-15.36,32.427-34.987,32.427-39.253c0-6.827,0-6.827-7.68-13.653l-42.667-42.667c-4.267-4.267-8.533-8.533-12.8-11.947
	c-11.947-10.24-22.187-19.627-22.187-33.28c0-11.947,7.68-30.72,17.92-36.693c4.267-2.56,9.387-3.413,13.653-0.853
	c2.56,1.707,65.707,38.4,86.187,51.2c24.747,16.213,52.907,42.667,52.907,97.28c0,40.107-29.013,89.6-49.493,125.44
	c-9.387,16.213-18.773,31.573-18.773,36.693v17.067C384.64,501.76,382.933,503.467,380.373,503.467z M175.573,503.467
	c-2.56,0-4.267-1.707-4.267-4.267v-17.067c0-2.56,1.707-4.267,4.267-4.267c2.56,0,4.267,1.707,4.267,4.267V499.2
	C179.84,501.76,178.133,503.467,175.573,503.467z M226.773,328.533c-7.68,0-15.36-3.413-21.333-8.533l-23.893-23.893
	c0,7.68-2.56,15.36-8.533,21.333c-11.093,11.093-30.72,11.093-42.667,0l-69.973-69.973c-11.947-11.947-11.947-30.72,0-41.813
	c5.973-5.973,13.653-8.533,21.333-8.533c-9.387-11.947-8.533-29.013,2.56-39.253c5.973-5.973,13.653-9.387,21.333-8.533
	c-4.267-5.12-5.973-11.947-5.973-18.773c0-7.68,3.413-15.36,8.533-21.333c5.973-5.973,13.653-9.387,21.333-8.533
	c-9.387-11.947-8.533-29.013,2.56-39.253c10.24-10.24,26.453-11.093,38.4-3.413V4.267c0-2.56,1.707-4.267,4.267-4.267
	s4.267,1.707,4.267,4.267v60.587l61.44,61.44c5.973,5.973,8.533,12.8,8.533,21.333c0,7.68-3.413,15.36-8.533,21.333
	c-5.973,5.973-13.653,8.533-21.333,8.533L246.4,204.8c5.973,5.973,8.533,12.8,8.533,21.333c0,7.68-3.413,15.36-8.533,21.333
	c-5.973,5.973-12.8,8.533-21.333,8.533l21.333,21.333c5.973,5.973,8.533,12.8,8.533,21.333c0,7.68-3.413,15.36-8.533,21.333l0,0l0,0
	l0,0C242.133,325.12,234.453,328.533,226.773,328.533z M105.6,156.16c-5.12,0-11.093,1.707-15.36,5.973
	c-8.533,8.533-8.533,22.187,0,29.867l120.32,120.32c7.68,7.68,22.187,7.68,29.867,0l0,0c4.267-4.267,5.973-9.387,5.973-15.36
	s-2.56-11.093-5.973-15.36L119.253,160.427C116.693,157.867,111.573,156.16,105.6,156.16z M81.707,204.8
	c-5.12,0-11.093,1.707-15.36,5.973c-4.267,4.267-5.973,9.387-5.973,15.36c0,5.973,2.56,11.093,5.973,15.36l69.973,69.973
	c7.68,7.68,22.187,7.68,29.867,0c8.533-8.533,8.533-22.187,0-29.867l-69.973-69.973C92.8,206.507,86.827,204.8,81.707,204.8z
	 M187.52,216.747l23.893,23.893c7.68,7.68,22.187,7.68,29.867,0c4.267-4.267,5.973-9.387,5.973-15.36
	c0-5.973-2.56-11.093-5.973-15.36l0,0l-96.427-96.427c-7.68-7.68-22.187-7.68-29.867,0c-4.267,4.267-5.973,9.387-5.973,15.36
	s2.56,11.093,5.973,15.36l11.947,11.947l0,0L187.52,216.747z M154.24,59.733c-5.12,0-11.093,1.707-15.36,5.973
	c-8.533,8.533-8.533,22.187,0,29.867l66.56,66.56c7.68,7.68,22.187,7.68,29.867,0c4.267-4.267,5.973-9.387,5.973-15.36
	c0-5.973-2.56-11.093-5.973-15.36l0,0l-66.56-66.56C165.333,61.44,159.36,59.733,154.24,59.733z M431.573,213.333
	c-2.56,0-4.267-1.707-4.267-4.267c0-58.027-23.893-92.16-38.4-112.64c-6.827-10.24-12.8-17.92-12.8-23.893V4.267
	c0-2.56,1.707-4.267,4.267-4.267s4.267,1.707,4.267,4.267v68.267c0,4.267,5.12,11.093,11.093,19.627
	c15.36,21.333,40.107,57.173,40.107,116.907C435.84,211.627,433.28,213.333,431.573,213.333z"/>
<g>
</g>
<g>
</g>
<g>
</g>
<g>
</g>
<g>
</g>
<g>
</g>
<g>
</g>
<g>
</g>
<g>
</g>
<g>
</g>
<g>
</g>
<g>
</g>
<g>
</g>
<g>
</g>
<g>
</g>
</svg>
